<svg xmlns="http://www.w3.org/2000/svg" xmlns:xlink="http://www.w3.org/1999/xlink" preserveAspectRatio="xMidYMid meet" version="1.0" viewBox="-0.2 -0.1 500.6 468.5" zoomAndPan="magnify" style="fill: rgb(0, 0, 0);" original_string_length="44374"><defs><clipPath id="__id79_sb1y59vl4g"><path d="M 389 410 L 500.390625 410 L 500.390625 468.460938 L 389 468.460938 Z M 389 410"/></clipPath></defs><g><g id="__id80_sb1y59vl4g"><path d="M 290.183594 211.507812 C 289.59375 211.507812 289.03125 211.15625 288.792969 210.574219 L 288.164062 209.046875 C 286.992188 206.210938 285.78125 203.28125 285.09375 200.136719 C 283.398438 192.316406 282.78125 183.546875 283.257812 174.070312 C 283.601562 167.175781 285.707031 160.703125 287.742188 154.445312 C 288.769531 151.28125 289.835938 148.011719 290.648438 144.75 C 291.535156 141.160156 292.3125 137.386719 292.960938 133.542969 C 293.097656 132.722656 293.875 132.171875 294.6875 132.3125 C 295.503906 132.449219 296.054688 133.222656 295.917969 134.039062 C 295.261719 137.960938 294.46875 141.808594 293.558594 145.472656 C 292.71875 148.839844 291.640625 152.160156 290.59375 155.371094 C 288.527344 161.722656 286.578125 167.722656 286.253906 174.21875 C 285.792969 183.433594 286.390625 191.9375 288.027344 199.496094 C 288.65625 202.382812 289.765625 205.0625 290.9375 207.898438 L 291.574219 209.441406 C 291.886719 210.210938 291.515625 211.085938 290.75 211.398438 C 290.5625 211.472656 290.371094 211.507812 290.183594 211.507812" style="fill: rgb(173, 160, 132);"/></g><g id="__id81_sb1y59vl4g"><path d="M 290.359375 211.980469 C 289.746094 211.980469 289.171875 211.601562 288.953125 210.988281 L 288.949219 210.984375 C 288.910156 210.867188 288.867188 210.75 288.820312 210.644531 C 288.476562 209.890625 288.804688 209 289.558594 208.65625 C 290.3125 208.308594 291.203125 208.640625 291.546875 209.394531 C 291.632812 209.574219 291.703125 209.773438 291.773438 209.96875 C 292.054688 210.75 291.648438 211.609375 290.871094 211.890625 C 290.703125 211.949219 290.53125 211.980469 290.359375 211.980469" style="fill: rgb(173, 160, 132);"/></g><g id="__id82_sb1y59vl4g"><path d="M 290.363281 211.980469 C 289.96875 211.980469 289.574219 211.824219 289.277344 211.515625 C 288.707031 210.914062 288.730469 209.96875 289.328125 209.394531 C 294.511719 204.460938 297.65625 195.195312 299.816406 187.671875 C 301.585938 181.5 302.265625 174.261719 301.726562 167.285156 C 301.378906 162.773438 300.097656 158.164062 298.859375 153.707031 C 298.101562 150.976562 297.320312 148.15625 296.75 145.367188 C 296.101562 142.195312 294.777344 138.796875 293.5 135.515625 L 293.039062 134.332031 C 292.742188 133.558594 293.125 132.691406 293.898438 132.390625 C 294.667969 132.09375 295.539062 132.476562 295.839844 133.25 L 296.296875 134.425781 C 297.617188 137.824219 298.988281 141.34375 299.691406 144.765625 C 300.238281 147.453125 301.007812 150.226562 301.75 152.902344 C 303.027344 157.5 304.347656 162.253906 304.71875 167.054688 C 305.285156 174.378906 304.566406 181.992188 302.699219 188.5 C 300.433594 196.386719 297.101562 206.136719 291.398438 211.566406 C 291.109375 211.84375 290.734375 211.980469 290.363281 211.980469" style="fill: rgb(173, 160, 132);"/></g><g id="__id83_sb1y59vl4g"><path d="M 298.921875 260.226562 C 298.488281 260.226562 298.058594 260.039062 297.761719 259.679688 C 289.226562 249.28125 277.546875 240.582031 265.324219 231.851562 C 264.648438 231.371094 264.492188 230.433594 264.976562 229.757812 C 265.457031 229.085938 266.390625 228.929688 267.066406 229.410156 C 279.460938 238.261719 291.3125 247.09375 300.078125 257.773438 C 300.605469 258.414062 300.511719 259.359375 299.871094 259.886719 C 299.59375 260.117188 299.257812 260.226562 298.921875 260.226562" style="fill: rgb(173, 160, 132);"/></g><g id="__id84_sb1y59vl4g"><path d="M 266.195312 232.121094 C 265.898438 232.121094 265.597656 232.03125 265.335938 231.847656 L 263.742188 230.71875 C 263.0625 230.242188 262.902344 229.304688 263.378906 228.628906 C 263.851562 227.953125 264.789062 227.789062 265.46875 228.261719 L 267.058594 229.390625 C 267.734375 229.867188 267.898438 230.804688 267.425781 231.480469 C 267.132812 231.898438 266.667969 232.121094 266.195312 232.121094" style="fill: rgb(173, 160, 132);"/></g><g id="__id85_sb1y59vl4g"><path d="M 265.882812 231.285156 C 265.765625 231.285156 265.644531 231.269531 265.523438 231.242188 C 265.121094 231.144531 264.710938 231.046875 264.296875 230.960938 C 262.308594 230.515625 260.328125 230.085938 258.347656 229.65625 C 239.230469 225.5 219.464844 221.203125 203.265625 208.734375 C 194.574219 202.050781 187.96875 193.003906 181.578125 184.253906 C 178.648438 180.238281 175.617188 176.089844 172.445312 172.257812 C 171.914062 171.617188 172.003906 170.671875 172.644531 170.144531 C 173.28125 169.617188 174.226562 169.707031 174.753906 170.34375 C 177.984375 174.246094 181.042969 178.433594 184 182.484375 C 190.265625 191.0625 196.746094 199.933594 205.09375 206.359375 C 220.761719 218.414062 240.191406 222.640625 258.980469 226.722656 C 260.96875 227.15625 262.953125 227.585938 264.929688 228.027344 C 265.355469 228.117188 265.804688 228.222656 266.234375 228.328125 C 267.039062 228.523438 267.53125 229.335938 267.335938 230.140625 C 267.171875 230.824219 266.558594 231.285156 265.882812 231.285156" style="fill: rgb(173, 160, 132);"/></g><g id="__id86_sb1y59vl4g"><path d="M 266.195312 232.125 C 265.511719 232.125 264.929688 231.667969 264.753906 231.039062 L 264.480469 230.292969 C 264.199219 229.511719 264.605469 228.652344 265.382812 228.371094 C 266.160156 228.09375 267.023438 228.496094 267.304688 229.277344 L 267.605469 230.113281 C 267.664062 230.273438 267.695312 230.445312 267.695312 230.621094 C 267.695312 231.449219 267.023438 232.125 266.195312 232.125" style="fill: rgb(173, 160, 132);"/></g><g id="__id87_sb1y59vl4g"><path d="M 265.878906 231.285156 C 265.273438 231.285156 264.703125 230.914062 264.476562 230.316406 C 257.730469 212.566406 237.640625 197.117188 221.972656 187.28125 C 213.726562 182.113281 204.902344 179.140625 194.183594 176.269531 C 190.050781 175.164062 184.886719 174.441406 179.894531 173.746094 C 177.597656 173.421875 175.425781 173.117188 173.355469 172.78125 C 172.539062 172.648438 171.984375 171.875 172.117188 171.058594 C 172.253906 170.238281 173.023438 169.6875 173.84375 169.820312 C 175.875 170.152344 178.03125 170.453125 180.3125 170.773438 C 185.394531 171.484375 190.648438 172.21875 194.960938 173.371094 C 205.9375 176.3125 215.003906 179.371094 223.566406 184.738281 C 239.621094 194.820312 260.238281 210.726562 267.28125 229.25 C 267.574219 230.027344 267.1875 230.890625 266.414062 231.1875 C 266.238281 231.253906 266.058594 231.285156 265.878906 231.285156" style="fill: rgb(173, 160, 132);"/></g><g id="__id88_sb1y59vl4g"><path d="M 368.25 342.867188 C 367.585938 342.867188 366.980469 342.425781 366.800781 341.753906 C 366.671875 341.265625 366.554688 340.78125 366.433594 340.296875 L 366.222656 339.445312 C 363.023438 326.144531 360.933594 311.539062 367.183594 294.777344 C 370.660156 285.460938 376.503906 277.132812 382.152344 269.078125 C 386.464844 262.925781 390.925781 256.570312 394.179688 249.941406 C 394.542969 249.195312 395.441406 248.886719 396.183594 249.253906 C 396.929688 249.617188 397.234375 250.515625 396.871094 251.261719 C 393.515625 258.101562 388.988281 264.554688 384.609375 270.800781 C 379.066406 278.699219 373.335938 286.871094 369.996094 295.824219 C 364.023438 311.835938 366.054688 325.90625 369.136719 338.726562 L 369.347656 339.578125 C 369.460938 340.046875 369.578125 340.515625 369.703125 340.984375 C 369.914062 341.785156 369.4375 342.605469 368.636719 342.816406 C 368.507812 342.851562 368.378906 342.867188 368.25 342.867188" style="fill: rgb(173, 160, 132);"/></g><g id="__id89_sb1y59vl4g"><path d="M 337.050781 298.324219 C 336.234375 298.324219 335.5625 297.667969 335.550781 296.847656 C 335.527344 295.332031 335.484375 293.828125 335.441406 292.324219 C 335.328125 287.632812 335.191406 282.949219 335.046875 278.292969 C 333.605469 233.632812 336.886719 189.265625 345.078125 142.652344 C 345.222656 141.835938 345.996094 141.296875 346.816406 141.433594 C 347.632812 141.578125 348.179688 142.355469 348.035156 143.171875 C 339.878906 189.578125 336.609375 233.746094 338.042969 278.195312 C 338.1875 282.863281 338.324219 287.550781 338.4375 292.238281 C 338.484375 293.757812 338.527344 295.273438 338.550781 296.800781 C 338.5625 297.632812 337.902344 298.3125 337.074219 298.324219 C 337.066406 298.324219 337.058594 298.324219 337.050781 298.324219" style="fill: rgb(173, 160, 132);"/></g><g id="__id90_sb1y59vl4g"><path d="M 337.671875 343.488281 C 336.847656 343.488281 336.175781 342.820312 336.171875 341.996094 C 336.101562 326.28125 335.894531 311.097656 335.550781 296.871094 C 335.53125 296.042969 336.1875 295.355469 337.015625 295.335938 C 337.839844 295.328125 338.53125 295.972656 338.550781 296.800781 C 338.890625 311.046875 339.101562 326.246094 339.171875 341.980469 C 339.175781 342.808594 338.507812 343.484375 337.679688 343.488281 C 337.679688 343.488281 337.675781 343.488281 337.671875 343.488281" style="fill: rgb(173, 160, 132);"/></g><g id="__id91_sb1y59vl4g"><path d="M 337.636719 296.53125 C 336.953125 296.53125 336.335938 296.0625 336.175781 295.367188 C 335.96875 294.460938 335.734375 293.566406 335.492188 292.667969 C 333.015625 283.375 329.738281 274.554688 326.269531 265.21875 C 324.066406 259.285156 321.785156 253.152344 319.667969 246.734375 C 315.242188 233.363281 315.253906 219.996094 319.710938 203.386719 C 325.574219 181.464844 333.921875 159.4375 343.839844 139.6875 C 344.210938 138.945312 345.113281 138.648438 345.851562 139.019531 C 346.59375 139.390625 346.890625 140.292969 346.519531 141.03125 C 336.691406 160.605469 328.421875 182.433594 322.605469 204.164062 C 318.3125 220.171875 318.285156 233.011719 322.515625 245.792969 C 324.617188 252.160156 326.886719 258.265625 329.082031 264.171875 C 332.574219 273.578125 335.878906 282.464844 338.390625 291.890625 C 338.640625 292.816406 338.882812 293.746094 339.101562 294.691406 C 339.285156 295.5 338.78125 296.304688 337.976562 296.492188 C 337.863281 296.515625 337.75 296.53125 337.636719 296.53125" style="fill: rgb(173, 160, 132);"/></g><g id="__id92_sb1y59vl4g"><path d="M 391.371094 413.25 C 391.003906 413.25 390.636719 413.117188 390.347656 412.84375 C 388.507812 411.125 386.648438 409.320312 384.675781 407.332031 C 376.335938 398.960938 368.253906 389.640625 360.65625 379.636719 C 352.199219 368.496094 344.027344 356.078125 336.371094 342.734375 C 330.652344 332.78125 324.988281 321.925781 319.53125 310.472656 C 318.507812 308.339844 317.496094 306.199219 316.5 304.046875 C 310.433594 290.917969 304.226562 276.273438 297.523438 259.277344 C 295.757812 254.808594 293.890625 250.011719 291.820312 244.613281 C 289.933594 239.699219 288.003906 234.617188 286.09375 229.507812 C 279.1875 211.113281 272.449219 192.449219 266.066406 174.027344 C 265.796875 173.242188 266.210938 172.390625 266.992188 172.117188 C 267.773438 171.847656 268.628906 172.261719 268.898438 173.046875 C 275.273438 191.441406 282.003906 210.085938 288.902344 228.457031 C 290.808594 233.554688 292.734375 238.628906 294.621094 243.535156 C 296.6875 248.925781 298.550781 253.714844 300.316406 258.175781 C 306.996094 275.117188 313.183594 289.710938 319.222656 302.789062 C 320.214844 304.925781 321.214844 307.050781 322.238281 309.179688 C 327.664062 320.566406 333.292969 331.351562 338.972656 341.242188 C 346.566406 354.476562 354.667969 366.785156 363.046875 377.824219 C 370.5625 387.722656 378.554688 396.9375 386.800781 405.21875 C 388.753906 407.179688 390.582031 408.957031 392.394531 410.652344 C 393 411.21875 393.03125 412.167969 392.464844 412.773438 C 392.171875 413.089844 391.769531 413.25 391.371094 413.25" style="fill: rgb(173, 160, 132);"/></g><g id="__id93_sb1y59vl4g"><path d="M 267.472656 175.023438 C 266.851562 175.023438 266.269531 174.636719 266.054688 174.015625 C 264.800781 170.402344 263.558594 166.785156 262.328125 163.171875 L 261.601562 161.058594 C 259.351562 154.433594 257.507812 148.945312 255.800781 143.789062 C 241.890625 101.867188 229.015625 59.058594 217.539062 16.546875 C 217.324219 15.746094 217.796875 14.925781 218.597656 14.707031 C 219.398438 14.492188 220.222656 14.964844 220.4375 15.765625 C 231.898438 58.222656 244.753906 100.976562 258.644531 142.84375 C 260.351562 147.992188 262.195312 153.472656 264.445312 160.09375 L 265.167969 162.207031 C 266.394531 165.8125 267.636719 169.425781 268.890625 173.03125 C 269.160156 173.816406 268.746094 174.671875 267.964844 174.941406 C 267.800781 174.996094 267.636719 175.023438 267.472656 175.023438" style="fill: rgb(173, 160, 132);"/></g><g id="__id94_sb1y59vl4g"><path d="M 126.246094 40.886719 C 125.636719 40.886719 125.066406 40.515625 124.839844 39.914062 C 120.402344 28.039062 114.363281 19.203125 106.894531 13.644531 L 105.617188 12.695312 C 100.875 9.148438 95.96875 5.484375 90.40625 3.871094 C 89.820312 3.699219 89.203125 3.558594 88.515625 3.445312 C 87.90625 3.332031 87.347656 3.246094 86.785156 3.171875 C 86.542969 3.144531 86.277344 3.109375 86.011719 3.074219 L 85.375 2.992188 C 84.550781 2.894531 83.964844 2.148438 84.0625 1.324219 C 84.160156 0.503906 84.914062 -0.0820312 85.730469 0.015625 L 86.398438 0.0976562 C 86.648438 0.132812 86.902344 0.164062 87.15625 0.195312 C 87.796875 0.28125 88.410156 0.375 89.035156 0.492188 C 89.8125 0.621094 90.546875 0.785156 91.246094 0.992188 C 97.328125 2.753906 102.457031 6.585938 107.414062 10.289062 L 108.683594 11.238281 C 116.625 17.144531 123.007812 26.441406 127.652344 38.863281 C 127.941406 39.640625 127.546875 40.503906 126.769531 40.792969 C 126.597656 40.855469 126.421875 40.886719 126.246094 40.886719" style="fill: rgb(173, 160, 132);"/></g><g id="__id95_sb1y59vl4g"><path d="M 120.558594 67.132812 C 120.542969 67.132812 120.53125 67.132812 120.515625 67.132812 C 119.6875 67.109375 119.035156 66.421875 119.058594 65.59375 C 119.246094 58.585938 120.640625 50.710938 122.882812 43.980469 C 123.167969 43.105469 123.472656 42.28125 123.773438 41.492188 C 124.117188 40.585938 124.484375 39.683594 124.867188 38.796875 C 128.335938 30.574219 132.976562 22.761719 137.460938 15.203125 C 138.53125 13.40625 139.597656 11.605469 140.652344 9.800781 C 141.4375 8.464844 142.199219 7.140625 142.953125 5.796875 C 143.355469 5.070312 144.269531 4.8125 144.992188 5.21875 C 145.714844 5.621094 145.976562 6.535156 145.570312 7.257812 C 144.808594 8.621094 144.035156 9.964844 143.242188 11.316406 C 142.1875 13.125 141.113281 14.929688 140.039062 16.738281 C 135.605469 24.207031 131.019531 31.929688 127.628906 39.972656 C 127.261719 40.828125 126.90625 41.691406 126.574219 42.5625 C 126.289062 43.3125 126.003906 44.089844 125.730469 44.925781 C 123.574219 51.390625 122.234375 58.949219 122.054688 65.671875 C 122.035156 66.488281 121.367188 67.132812 120.558594 67.132812" style="fill: rgb(173, 160, 132);"/></g><g id="__id96_sb1y59vl4g"><path d="M 104.347656 56.488281 C 103.835938 56.488281 103.335938 56.226562 103.058594 55.753906 C 100.304688 51.117188 97.460938 47.367188 94.109375 43.949219 C 92.019531 41.824219 89.703125 39.765625 87.027344 37.652344 C 85.46875 36.425781 83.902344 35.261719 82.363281 34.199219 C 82.3125 34.164062 82.265625 34.125 82.21875 34.085938 C 78.132812 31.210938 73.839844 28.535156 69.691406 25.953125 C 67.976562 24.886719 66.238281 23.734375 64.558594 22.621094 C 58.644531 18.703125 52.527344 14.65625 45.839844 13.054688 L 44.671875 12.769531 C 43.257812 12.421875 41.382812 11.964844 39.398438 11.539062 C 38.585938 11.363281 38.070312 10.570312 38.242188 9.757812 C 38.417969 8.949219 39.21875 8.433594 40.023438 8.605469 C 42.050781 9.039062 43.957031 9.503906 45.390625 9.859375 L 46.554688 10.140625 C 53.742188 11.863281 60.082031 16.058594 66.214844 20.117188 C 67.878906 21.222656 69.597656 22.359375 71.277344 23.40625 C 75.507812 26.039062 79.882812 28.765625 84.082031 31.726562 C 84.125 31.757812 84.164062 31.789062 84.203125 31.824219 C 85.75 32.898438 87.324219 34.066406 88.886719 35.296875 C 91.660156 37.488281 94.070312 39.632812 96.25 41.847656 C 99.777344 45.441406 102.757812 49.375 105.636719 54.222656 C 106.058594 54.933594 105.824219 55.855469 105.113281 56.277344 C 104.871094 56.421875 104.609375 56.488281 104.347656 56.488281" style="fill: rgb(173, 160, 132);"/></g><g id="__id97_sb1y59vl4g"><path d="M 149.789062 160.394531 C 148.996094 160.394531 148.335938 159.773438 148.296875 158.972656 C 147.757812 148.53125 146.992188 136.191406 145.4375 123.828125 C 142.070312 97.066406 133.617188 78.40625 119.601562 66.785156 C 119.410156 66.613281 119.292969 66.515625 119.164062 66.414062 C 115.484375 63.429688 112.28125 61.105469 109.351562 59.300781 C 107.308594 58.042969 105.433594 57.0625 103.789062 56.386719 C 103.023438 56.070312 102.65625 55.195312 102.96875 54.429688 C 103.285156 53.664062 104.160156 53.296875 104.929688 53.609375 C 106.722656 54.347656 108.742188 55.402344 110.925781 56.746094 C 113.96875 58.621094 117.273438 61.015625 121.039062 64.070312 C 121.210938 64.207031 121.386719 64.355469 121.574219 64.53125 C 136.144531 76.605469 144.945312 95.898438 148.414062 123.453125 C 149.984375 135.910156 150.75 148.320312 151.289062 158.816406 C 151.332031 159.644531 150.699219 160.351562 149.871094 160.394531 C 149.84375 160.394531 149.816406 160.394531 149.789062 160.394531" style="fill: rgb(173, 160, 132);"/></g><g id="__id98_sb1y59vl4g"><path d="M 144.113281 174.347656 C 143.460938 174.347656 142.855469 173.914062 142.671875 173.253906 C 142.121094 171.296875 141.53125 169.347656 140.925781 167.460938 C 131.085938 136.574219 113.402344 109.832031 94.683594 81.515625 C 93.109375 79.132812 91.527344 76.742188 89.945312 74.335938 C 86.742188 69.472656 83.613281 64.347656 80.59375 59.390625 C 74.097656 48.746094 67.386719 37.742188 59.375 28.351562 C 54.453125 22.582031 49.070312 17.273438 43.988281 12.394531 C 43.390625 11.820312 43.371094 10.871094 43.945312 10.273438 C 44.519531 9.675781 45.46875 9.65625 46.066406 10.230469 C 51.203125 15.164062 56.648438 20.535156 61.65625 26.402344 C 69.820312 35.976562 76.597656 47.085938 83.152344 57.828125 C 86.164062 62.761719 89.277344 67.863281 92.449219 72.6875 C 94.03125 75.089844 95.613281 77.480469 97.1875 79.863281 C 116.023438 108.355469 133.816406 135.265625 143.78125 166.542969 C 144.398438 168.464844 144.996094 170.449219 145.558594 172.441406 C 145.78125 173.238281 145.316406 174.066406 144.519531 174.289062 C 144.386719 174.328125 144.246094 174.347656 144.113281 174.347656" style="fill: rgb(173, 160, 132);"/></g><g id="__id99_sb1y59vl4g"><path d="M 137.195312 172.28125 C 136.679688 172.28125 136.175781 172.015625 135.898438 171.535156 C 135.480469 170.820312 135.726562 169.902344 136.441406 169.484375 C 137.507812 168.863281 138.589844 168.121094 139.746094 167.21875 C 140.28125 166.789062 140.828125 166.34375 141.363281 165.871094 C 143.777344 163.738281 146.214844 161.085938 148.605469 157.980469 C 152.542969 152.902344 156.445312 146.558594 160.203125 139.117188 C 162.132812 135.3125 163.96875 131.34375 165.65625 127.328125 C 168.769531 119.941406 170.460938 112.234375 171.3125 101.546875 C 172.46875 87.074219 171.339844 70.820312 168.136719 55.773438 C 165.863281 45.136719 161.890625 29.839844 153.679688 19.839844 C 153.109375 19.144531 152.5 18.394531 151.859375 17.601562 C 149.414062 14.582031 146.375 10.824219 143.191406 7.578125 C 142.609375 6.988281 142.621094 6.035156 143.210938 5.457031 C 143.804688 4.878906 144.753906 4.886719 145.332031 5.476562 C 148.617188 8.824219 151.707031 12.644531 154.191406 15.714844 C 154.828125 16.5 155.429688 17.246094 155.996094 17.933594 C 164.625 28.441406 168.730469 44.203125 171.070312 55.148438 C 174.378906 70.691406 175.496094 86.820312 174.304688 101.78125 C 173.425781 112.808594 171.664062 120.796875 168.421875 128.492188 C 166.707031 132.574219 164.84375 136.605469 162.882812 140.472656 C 159.035156 148.082031 155.03125 154.589844 150.976562 159.8125 C 148.476562 163.066406 145.90625 165.863281 143.347656 168.125 C 142.773438 168.628906 142.191406 169.105469 141.609375 169.570312 C 140.328125 170.570312 139.136719 171.386719 137.949219 172.078125 C 137.710938 172.214844 137.453125 172.28125 137.195312 172.28125" style="fill: rgb(173, 160, 132);"/></g><g clip-path="url(#__id79_sb1y59vl4g)" id="__id100_sb1y59vl4g"><path d="M 498.890625 468.460938 C 498.707031 468.460938 498.519531 468.425781 498.339844 468.355469 C 461.894531 453.988281 425.644531 435.378906 390.597656 413.035156 C 389.898438 412.59375 389.695312 411.664062 390.140625 410.964844 C 390.585938 410.265625 391.511719 410.0625 392.210938 410.507812 C 427.097656 432.746094 463.175781 451.269531 499.441406 465.5625 C 500.210938 465.867188 500.589844 466.738281 500.285156 467.511719 C 500.054688 468.101562 499.488281 468.460938 498.890625 468.460938" style="fill: rgb(173, 160, 132);"/></g><g id="__id101_sb1y59vl4g"><path d="M 391.367188 413.25 C 391.09375 413.25 390.8125 413.175781 390.5625 413.015625 C 343.984375 383.332031 298.121094 346.175781 254.257812 302.585938 C 253.671875 302 253.667969 301.050781 254.25 300.464844 C 254.835938 299.875 255.785156 299.875 256.371094 300.457031 C 300.085938 343.898438 345.777344 380.917969 392.175781 410.484375 C 392.875 410.929688 393.078125 411.855469 392.636719 412.554688 C 392.347656 413.003906 391.863281 413.25 391.367188 413.25" style="fill: rgb(173, 160, 132);"/></g><g id="__id102_sb1y59vl4g"><path d="M 206.980469 251.546875 C 206.5625 251.546875 206.148438 251.375 205.851562 251.035156 C 198.390625 242.550781 190.980469 233.859375 183.820312 225.210938 C 173.511719 212.753906 162.664062 199.175781 149.691406 182.480469 C 148.523438 180.988281 147.394531 179.546875 146.285156 178.089844 C 145.785156 177.429688 145.910156 176.488281 146.570312 175.988281 C 147.226562 175.488281 148.171875 175.613281 148.671875 176.273438 C 149.773438 177.71875 150.894531 179.152344 152.015625 180.585938 C 165.015625 197.308594 175.839844 210.863281 186.132812 223.296875 C 193.269531 231.925781 200.664062 240.59375 208.105469 249.054688 C 208.652344 249.679688 208.589844 250.625 207.96875 251.175781 C 207.683594 251.425781 207.328125 251.546875 206.980469 251.546875" style="fill: rgb(173, 160, 132);"/></g><g id="__id103_sb1y59vl4g"><path d="M 147.46875 178.683594 C 147.023438 178.683594 146.582031 178.484375 146.285156 178.105469 C 145.152344 176.65625 144.03125 175.207031 142.925781 173.757812 C 142.09375 172.707031 141.265625 171.636719 140.449219 170.558594 C 140.128906 170.15625 139.796875 169.730469 139.476562 169.304688 C 138.976562 168.644531 139.105469 167.703125 139.765625 167.203125 C 140.425781 166.703125 141.367188 166.832031 141.867188 167.492188 C 142.179688 167.90625 142.5 168.316406 142.824219 168.726562 C 143.644531 169.8125 144.464844 170.863281 145.292969 171.917969 C 146.410156 173.378906 147.523438 174.816406 148.648438 176.257812 C 149.160156 176.910156 149.042969 177.855469 148.390625 178.363281 C 148.117188 178.578125 147.789062 178.683594 147.46875 178.683594" style="fill: rgb(173, 160, 132);"/></g><g id="__id104_sb1y59vl4g"><path d="M 8.644531 115.796875 C 8.019531 115.796875 7.4375 115.402344 7.226562 114.777344 C 6.507812 112.652344 5.804688 110.515625 5.105469 108.382812 C 3.523438 103.582031 1.894531 98.621094 0.0976562 93.839844 C -0.195312 93.0625 0.199219 92.199219 0.972656 91.90625 C 1.746094 91.617188 2.613281 92.007812 2.90625 92.78125 C 4.722656 97.625 6.367188 102.617188 7.953125 107.445312 C 8.652344 109.574219 9.351562 111.699219 10.066406 113.816406 C 10.332031 114.601562 9.910156 115.453125 9.125 115.71875 C 8.96875 115.769531 8.804688 115.796875 8.644531 115.796875" style="fill: rgb(173, 160, 132);"/></g><g id="__id105_sb1y59vl4g"><path d="M 54.238281 96.242188 C 53.851562 96.242188 53.464844 96.09375 53.167969 95.796875 C 47.09375 89.617188 43.722656 81.652344 42.566406 70.734375 C 41.785156 63.453125 42.074219 55.609375 42.351562 48.023438 C 42.832031 34.960938 43.328125 21.457031 38.347656 10.703125 C 38 9.949219 38.328125 9.058594 39.082031 8.710938 C 39.832031 8.363281 40.722656 8.6875 41.074219 9.441406 C 46.351562 20.847656 45.84375 34.71875 45.351562 48.132812 C 45.078125 55.613281 44.792969 63.347656 45.546875 70.417969 C 46.632812 80.625 49.734375 88.023438 55.308594 93.691406 C 55.890625 94.28125 55.882812 95.234375 55.289062 95.8125 C 55 96.101562 54.617188 96.242188 54.238281 96.242188" style="fill: rgb(173, 160, 132);"/></g><g id="__id106_sb1y59vl4g"><path d="M 147.480469 178.683594 C 146.648438 178.683594 145.972656 178.011719 145.972656 177.183594 C 145.972656 176.351562 146.640625 175.683594 147.46875 175.683594 L 147.480469 175.683594 C 148.308594 175.683594 148.980469 176.351562 148.980469 177.183594 C 148.980469 178.011719 148.308594 178.683594 147.480469 178.683594" style="fill: rgb(173, 160, 132);"/></g><g id="__id107_sb1y59vl4g"><path d="M 132.890625 170.460938 Z M 132.152344 173.230469 C 132.054688 173.230469 131.953125 173.21875 131.855469 173.199219 C 131.667969 173.164062 131.488281 173.097656 131.320312 173.007812 C 129.289062 172.179688 127.257812 171.304688 125.285156 170.40625 C 124.53125 170.066406 124.199219 169.175781 124.542969 168.421875 C 124.886719 167.667969 125.773438 167.332031 126.527344 167.679688 C 128.496094 168.574219 130.523438 169.445312 132.558594 170.273438 C 132.59375 170.285156 132.628906 170.300781 132.660156 170.320312 C 133.347656 170.566406 133.769531 171.285156 133.621094 172.023438 C 133.476562 172.738281 132.851562 173.230469 132.152344 173.230469" style="fill: rgb(173, 160, 132);"/></g><g id="__id108_sb1y59vl4g"><path d="M 125.894531 170.542969 C 125.6875 170.542969 125.476562 170.5 125.277344 170.410156 C 121.621094 168.753906 118.085938 167.019531 114.472656 165.109375 C 104.601562 159.890625 90.230469 151.691406 79.4375 140.746094 C 71.035156 132.246094 64.9375 123.859375 60.242188 114.351562 C 57.507812 108.816406 55.152344 102.746094 52.832031 95.25 C 52.648438 94.722656 52.761719 94.109375 53.183594 93.6875 C 53.769531 93.105469 54.714844 93.097656 55.300781 93.683594 L 55.308594 93.695312 C 55.484375 93.867188 55.609375 94.078125 55.683594 94.3125 C 57.957031 101.675781 60.261719 107.617188 62.933594 113.019531 C 67.480469 122.234375 73.402344 130.375 81.574219 138.640625 C 92.078125 149.289062 106.179688 157.332031 115.871094 162.457031 C 119.433594 164.339844 122.914062 166.046875 126.515625 167.675781 C 127.269531 168.019531 127.605469 168.90625 127.261719 169.660156 C 127.011719 170.214844 126.464844 170.542969 125.894531 170.542969" style="fill: rgb(173, 160, 132);"/></g><g id="__id109_sb1y59vl4g"><path d="M 61.585938 115.1875 C 61.25 115.1875 60.914062 115.074219 60.636719 114.84375 C 51.210938 107.101562 39.933594 102.199219 28.886719 101.03125 C 28.023438 100.945312 27.121094 100.84375 26.191406 100.738281 L 25.398438 100.648438 C 15.027344 99.375 7.011719 97.425781 0.886719 94.679688 C 0.132812 94.339844 -0.207031 93.453125 0.132812 92.695312 C 0.46875 91.941406 1.359375 91.605469 2.113281 91.941406 C 7.960938 94.5625 15.695312 96.433594 25.75 97.667969 L 26.53125 97.757812 C 27.449219 97.863281 28.339844 97.960938 29.195312 98.050781 C 40.828125 99.273438 52.667969 104.414062 62.539062 112.527344 C 63.179688 113.054688 63.273438 113.996094 62.746094 114.636719 C 62.449219 115 62.019531 115.1875 61.585938 115.1875" style="fill: rgb(173, 160, 132);"/></g><g id="__id110_sb1y59vl4g"><path d="M 25.566406 100.65625 C 24.914062 100.65625 24.3125 100.230469 24.125 99.570312 C 22.949219 95.476562 22.0625 91.566406 21.476562 88.976562 L 21.191406 87.734375 C 19.53125 80.578125 18.519531 73.289062 17.539062 66.242188 L 17.308594 64.585938 C 17.195312 63.765625 17.765625 63.007812 18.585938 62.894531 C 19.402344 62.773438 20.164062 63.351562 20.28125 64.171875 L 20.511719 65.828125 C 21.480469 72.8125 22.484375 80.03125 24.117188 87.058594 L 24.402344 88.3125 C 24.980469 90.867188 25.855469 94.730469 27.007812 98.742188 C 27.238281 99.539062 26.777344 100.371094 25.980469 100.601562 C 25.84375 100.640625 25.703125 100.65625 25.566406 100.65625" style="fill: rgb(173, 160, 132);"/></g><g id="__id111_sb1y59vl4g"><path d="M 44.054688 72.078125 C 43.859375 72.078125 43.664062 72.039062 43.472656 71.957031 C 35.414062 68.558594 26.746094 67.019531 18.582031 65.863281 C 17.765625 65.746094 17.191406 64.988281 17.308594 64.167969 C 17.425781 63.347656 18.1875 62.78125 19.003906 62.894531 C 27.367188 64.078125 36.265625 65.660156 44.640625 69.195312 C 45.402344 69.515625 45.761719 70.394531 45.4375 71.160156 C 45.195312 71.730469 44.640625 72.078125 44.054688 72.078125" style="fill: rgb(173, 160, 132);"/></g><g id="__id112_sb1y59vl4g"><path d="M 123.921875 174.097656 C 123.808594 174.097656 123.695312 174.085938 123.582031 174.058594 C 122.183594 173.734375 120.789062 173.433594 119.394531 173.15625 C 118.582031 172.992188 118.054688 172.203125 118.21875 171.390625 C 118.378906 170.578125 119.167969 170.050781 119.980469 170.214844 C 121.402344 170.496094 122.84375 170.808594 124.261719 171.136719 C 125.066406 171.324219 125.570312 172.132812 125.382812 172.9375 C 125.222656 173.632812 124.601562 174.097656 123.921875 174.097656" style="fill: rgb(173, 160, 132);"/></g><g id="__id113_sb1y59vl4g"><path d="M 10.144531 114.296875 L 10.15625 114.296875 Z M 119.679688 173.183594 C 119.578125 173.183594 119.480469 173.175781 119.378906 173.15625 C 117.132812 172.699219 114.882812 172.289062 112.636719 171.878906 C 103.570312 170.222656 94.191406 168.507812 85.207031 163.898438 C 82.304688 162.40625 79.242188 160.898438 76.28125 159.441406 C 67.839844 155.289062 59.113281 150.992188 51.515625 145.882812 C 47.945312 143.480469 44.328125 141.113281 40.496094 138.609375 C 29.515625 131.425781 18.160156 124 7.828125 115.5625 C 7.8125 115.550781 7.792969 115.535156 7.773438 115.519531 C 7.386719 115.242188 7.144531 114.785156 7.144531 114.296875 C 7.144531 113.46875 7.816406 112.796875 8.644531 112.796875 C 8.648438 112.796875 8.652344 112.796875 8.65625 112.796875 C 9.035156 112.796875 9.414062 112.9375 9.703125 113.222656 C 9.707031 113.222656 9.707031 113.222656 9.707031 113.222656 C 19.917969 121.566406 31.214844 128.953125 42.136719 136.097656 C 45.976562 138.609375 49.605469 140.980469 53.191406 143.394531 C 60.621094 148.390625 69.253906 152.640625 77.605469 156.75 C 80.578125 158.214844 83.652344 159.726562 86.578125 161.230469 C 95.167969 165.636719 103.914062 167.234375 113.175781 168.925781 C 115.441406 169.34375 117.707031 169.757812 119.972656 170.214844 C 120.785156 170.378906 121.308594 171.171875 121.144531 171.980469 C 121.003906 172.691406 120.378906 173.183594 119.679688 173.183594" style="fill: rgb(173, 160, 132);"/></g><g id="__id114_sb1y59vl4g"><path d="M 161.546875 141.296875 C 161.484375 141.296875 161.421875 141.292969 161.355469 141.285156 C 160.535156 141.179688 159.953125 140.429688 160.054688 139.609375 C 161.71875 126.414062 161.019531 111.992188 160.398438 99.269531 C 160.257812 96.355469 160.121094 93.503906 160.011719 90.726562 C 158.992188 64.566406 153.691406 40.917969 144.253906 20.441406 C 143.214844 18.195312 142.21875 15.546875 141.167969 12.742188 L 140.542969 11.089844 C 140.253906 10.3125 140.644531 9.445312 141.417969 9.152344 C 142.195312 8.863281 143.058594 9.253906 143.351562 10.027344 L 143.976562 11.691406 C 145.007812 14.441406 145.984375 17.039062 146.976562 19.183594 C 156.582031 40.023438 161.976562 64.054688 163.007812 90.609375 C 163.117188 93.375 163.257812 96.222656 163.398438 99.121094 C 164.019531 111.96875 164.730469 126.53125 163.03125 139.984375 C 162.9375 140.742188 162.289062 141.296875 161.546875 141.296875" style="fill: rgb(173, 160, 132);"/></g><g id="__id115_sb1y59vl4g"><path d="M 317.863281 304.917969 C 317.734375 304.917969 317.601562 304.898438 317.472656 304.863281 C 313.574219 303.816406 309.328125 303.121094 304.488281 302.734375 C 296.5625 302.097656 288.355469 302.402344 280.417969 302.699219 C 275.972656 302.863281 271.769531 303.019531 267.640625 303.019531 L 263.523438 303.023438 C 260.777344 303.023438 258.042969 303.027344 255.308594 303.019531 C 245.71875 303.011719 235.363281 302.882812 224.683594 302.035156 C 200.605469 300.125 178.53125 296.359375 160.839844 291.152344 C 147.917969 287.34375 136.089844 280.042969 124.652344 272.984375 C 121.695312 271.160156 118.640625 269.273438 115.648438 267.503906 L 113.421875 266.179688 C 109.925781 264.105469 105.957031 261.75 101.871094 259.5 C 101.148438 259.097656 100.882812 258.1875 101.28125 257.460938 C 101.683594 256.734375 102.59375 256.46875 103.320312 256.871094 C 107.449219 259.144531 111.433594 261.511719 114.953125 263.601562 L 117.179688 264.921875 C 120.195312 266.707031 123.261719 268.601562 126.226562 270.429688 C 137.496094 277.386719 149.148438 284.578125 161.6875 288.273438 C 179.183594 293.425781 201.046875 297.148438 224.921875 299.042969 C 235.5 299.886719 245.78125 300.011719 255.316406 300.019531 C 258.046875 300.027344 260.78125 300.023438 263.519531 300.023438 L 267.640625 300.019531 C 271.714844 300.019531 275.890625 299.863281 280.308594 299.699219 C 288.328125 299.402344 296.628906 299.09375 304.730469 299.742188 C 309.753906 300.144531 314.175781 300.871094 318.253906 301.96875 C 319.050781 302.183594 319.527344 303.007812 319.308594 303.804688 C 319.132812 304.476562 318.523438 304.917969 317.863281 304.917969" style="fill: rgb(173, 160, 132);"/></g><g id="__id116_sb1y59vl4g"><path d="M 304.609375 302.738281 C 304.335938 302.738281 304.058594 302.664062 303.808594 302.507812 C 298.609375 299.234375 293.367188 295.84375 288.296875 292.566406 C 270.808594 281.261719 252.726562 269.574219 233.480469 260.757812 C 224.984375 256.867188 215.949219 253.753906 206.628906 251.503906 C 189.503906 247.375 171.550781 246.097656 153.265625 247.703125 C 143.710938 248.542969 133.851562 251.410156 124.3125 254.179688 C 117.304688 256.21875 110.054688 258.328125 102.871094 259.660156 C 102.058594 259.816406 101.273438 259.273438 101.121094 258.460938 C 100.972656 257.644531 101.507812 256.859375 102.324219 256.710938 C 109.359375 255.40625 116.535156 253.320312 123.476562 251.300781 C 133.152344 248.488281 143.15625 245.578125 153.003906 244.714844 C 171.613281 243.082031 189.890625 244.382812 207.328125 248.589844 C 216.839844 250.882812 226.058594 254.058594 234.726562 258.027344 C 254.171875 266.9375 272.347656 278.683594 289.925781 290.046875 C 294.988281 293.320312 300.226562 296.707031 305.40625 299.96875 C 306.109375 300.410156 306.320312 301.335938 305.878906 302.039062 C 305.59375 302.492188 305.105469 302.738281 304.609375 302.738281" style="fill: rgb(173, 160, 132);"/></g><g id="__id117_sb1y59vl4g"><path d="M 361.851562 380.230469 C 361.0625 380.230469 360.398438 379.613281 360.355469 378.816406 C 359.953125 371.894531 361.578125 363.953125 362.882812 357.574219 C 363.125 356.382812 363.359375 355.246094 363.5625 354.1875 C 364.363281 350.058594 365.425781 345.730469 366.8125 340.949219 C 367.140625 339.789062 367.492188 338.628906 367.84375 337.46875 C 368.085938 336.675781 368.925781 336.226562 369.714844 336.46875 C 370.507812 336.707031 370.953125 337.546875 370.714844 338.339844 C 370.367188 339.480469 370.019531 340.621094 369.695312 341.773438 C 368.332031 346.476562 367.289062 350.722656 366.507812 354.761719 C 366.300781 355.824219 366.066406 356.96875 365.820312 358.175781 C 364.554688 364.386719 362.972656 372.113281 363.347656 378.644531 C 363.394531 379.472656 362.765625 380.179688 361.9375 380.226562 C 361.90625 380.230469 361.878906 380.230469 361.851562 380.230469" style="fill: rgb(173, 160, 132);"/></g><g id="__id118_sb1y59vl4g"><path d="M 268.972656 173.523438 L 268.980469 173.523438 Z M 267.484375 175.035156 C 266.65625 175.035156 265.972656 174.351562 265.972656 173.523438 C 265.972656 172.695312 266.644531 172.023438 267.472656 172.023438 C 267.878906 172.023438 268.246094 172.1875 268.515625 172.445312 C 268.804688 172.71875 268.984375 173.105469 268.984375 173.535156 C 268.984375 174.363281 268.3125 175.035156 267.484375 175.035156" style="fill: rgb(173, 160, 132);"/></g><g id="__id119_sb1y59vl4g"><path d="M 287.5 230.484375 C 287.449219 230.484375 287.398438 230.480469 287.351562 230.476562 C 286.527344 230.394531 285.925781 229.660156 286.003906 228.835938 C 286.554688 223.203125 287.394531 217.210938 288.570312 210.515625 L 288.640625 210.125 C 288.785156 209.308594 289.5625 208.773438 290.382812 208.914062 C 291.199219 209.0625 291.738281 209.84375 291.59375 210.65625 L 291.523438 211.042969 C 290.363281 217.652344 289.53125 223.574219 288.988281 229.128906 C 288.914062 229.902344 288.261719 230.484375 287.5 230.484375" style="fill: rgb(173, 160, 132);"/></g><g id="__id120_sb1y59vl4g"><path d="M 337.050781 298.328125 C 336.222656 298.328125 335.550781 297.664062 335.550781 296.835938 C 335.550781 296.679688 335.574219 296.515625 335.625 296.367188 L 336.28125 294.355469 C 352.125 246.078125 370.082031 191.355469 345.226562 143.601562 C 345.207031 143.570312 345.191406 143.53125 345.175781 143.496094 L 344.808594 142.800781 C 344.566406 142.339844 344.316406 141.890625 344.0625 141.433594 L 343.867188 141.089844 C 343.464844 140.367188 343.726562 139.453125 344.449219 139.050781 C 345.171875 138.648438 346.085938 138.90625 346.488281 139.628906 L 346.679688 139.972656 C 346.949219 140.453125 347.214844 140.925781 347.457031 141.394531 L 347.875 142.1875 C 347.898438 142.230469 347.921875 142.273438 347.941406 142.320312 C 373.304688 191.167969 355.148438 246.480469 339.132812 295.292969 L 338.488281 297.253906 C 338.304688 297.875 337.730469 298.328125 337.050781 298.328125" style="fill: rgb(173, 160, 132);"/></g><g id="__id121_sb1y59vl4g"><path d="M 369.28125 339.402344 C 368.800781 339.402344 368.328125 339.171875 368.039062 338.746094 C 367.574219 338.0625 367.75 337.128906 368.433594 336.660156 C 370.367188 335.347656 372.457031 334.234375 374.878906 332.945312 C 375.886719 332.40625 376.957031 331.839844 378.105469 331.203125 C 384.386719 327.742188 391.445312 319.292969 394.835938 315.234375 C 405.304688 302.71875 405.070312 281.746094 394.125 251.105469 C 393.84375 250.324219 394.25 249.46875 395.03125 249.1875 C 395.808594 248.910156 396.667969 249.316406 396.949219 250.09375 C 404.179688 270.335938 412.070312 299.308594 397.136719 317.15625 C 391.523438 323.878906 385.507812 330.550781 379.554688 333.832031 C 378.390625 334.472656 377.308594 335.050781 376.289062 335.59375 C 373.945312 336.839844 371.921875 337.917969 370.121094 339.140625 C 369.863281 339.316406 369.570312 339.402344 369.28125 339.402344" style="fill: rgb(173, 160, 132);"/></g><g id="__id122_sb1y59vl4g"><path d="M 263.023438 162.078125 C 262.640625 162.078125 262.253906 161.929688 261.960938 161.636719 C 260.800781 160.46875 259.496094 159.328125 258.242188 158.230469 C 256.800781 156.972656 255.3125 155.667969 254.054688 154.335938 C 250.789062 150.859375 247.519531 146.621094 244.0625 141.378906 C 239.671875 134.699219 235.613281 126.925781 231.660156 117.613281 C 221.894531 94.621094 216.546875 71.585938 215.773438 49.148438 C 215.429688 39.289062 216.3125 29.355469 217.164062 19.753906 L 217.515625 15.808594 C 217.652344 14.203125 217.792969 12.597656 217.921875 10.988281 C 217.988281 10.164062 218.703125 9.542969 219.539062 9.613281 C 220.363281 9.683594 220.980469 10.40625 220.914062 11.230469 C 220.785156 12.84375 220.644531 14.457031 220.503906 16.070312 L 220.15625 20.015625 C 219.308594 29.53125 218.433594 39.371094 218.773438 49.042969 C 219.53125 71.113281 224.800781 93.789062 234.421875 116.441406 C 238.304688 125.585938 242.277344 133.203125 246.566406 139.726562 C 249.929688 144.824219 253.09375 148.933594 256.238281 152.28125 C 257.394531 153.503906 258.765625 154.703125 260.214844 155.972656 C 261.511719 157.105469 262.851562 158.277344 264.089844 159.519531 C 264.671875 160.105469 264.671875 161.054688 264.082031 161.640625 C 263.789062 161.929688 263.40625 162.078125 263.023438 162.078125" style="fill: rgb(173, 160, 132);"/></g><g id="__id123_sb1y59vl4g"><path d="M 263.75 164.1875 C 263.707031 164.1875 263.664062 164.1875 263.625 164.183594 C 262.800781 164.113281 262.183594 163.390625 262.253906 162.566406 L 262.363281 161.335938 C 262.859375 155.917969 263.253906 150.414062 263.636719 145.089844 C 263.953125 140.605469 264.285156 135.964844 264.679688 131.382812 C 265.40625 122.914062 265.863281 112.917969 263.714844 102.972656 C 263.21875 100.691406 262.675781 98.453125 262.097656 96.324219 C 261.878906 95.523438 262.351562 94.699219 263.152344 94.480469 C 263.949219 94.265625 264.773438 94.738281 264.992188 95.535156 C 265.585938 97.71875 266.140625 100.007812 266.644531 102.339844 C 268.878906 112.671875 268.414062 122.949219 267.667969 131.636719 C 267.277344 136.199219 266.945312 140.828125 266.628906 145.304688 C 266.246094 150.640625 265.851562 156.160156 265.351562 161.59375 L 265.242188 162.808594 C 265.179688 163.59375 264.519531 164.1875 263.75 164.1875" style="fill: rgb(173, 160, 132);"/></g><g id="__id124_sb1y59vl4g"><path d="M 263.53125 97.394531 C 262.871094 97.394531 262.265625 96.957031 262.085938 96.285156 C 259.039062 85.015625 254.679688 74.707031 250.101562 64.257812 C 244.605469 51.703125 237.503906 41.4375 229.980469 30.5625 C 229.105469 29.300781 228.226562 28.027344 227.335938 26.738281 C 223.445312 21.082031 220.511719 16.34375 218.09375 11.816406 C 217.703125 11.085938 217.980469 10.179688 218.710938 9.785156 C 219.441406 9.394531 220.351562 9.671875 220.742188 10.402344 C 223.101562 14.828125 225.984375 19.476562 229.808594 25.035156 C 230.695312 26.324219 231.574219 27.597656 232.445312 28.855469 C 240.054688 39.851562 247.238281 50.234375 252.851562 63.054688 C 257.476562 73.609375 261.882812 84.035156 264.980469 95.503906 C 265.195312 96.304688 264.722656 97.128906 263.925781 97.34375 C 263.792969 97.378906 263.660156 97.394531 263.53125 97.394531" style="fill: rgb(173, 160, 132);"/></g><g id="__id125_sb1y59vl4g"><path d="M 118.308594 174.265625 C 117.820312 174.265625 117.328125 174.261719 116.832031 174.257812 C 104.558594 174.105469 92.429688 171.914062 80.703125 169.796875 C 66.433594 167.226562 31.535156 158.371094 15.765625 131.699219 C 12.679688 126.488281 9.722656 121.304688 7.453125 115.203125 L 7.335938 114.859375 C 6.550781 112.707031 5.902344 110.457031 5.277344 108.28125 C 4.65625 106.109375 4.011719 103.867188 3.230469 101.753906 C 2.945312 100.976562 3.34375 100.113281 4.117188 99.828125 C 4.894531 99.542969 5.757812 99.9375 6.046875 100.714844 C 6.863281 102.929688 7.523438 105.230469 8.164062 107.449219 C 8.773438 109.578125 9.40625 111.777344 10.167969 113.871094 L 10.285156 114.207031 C 12.449219 120.027344 15.332031 125.082031 18.347656 130.171875 C 33.488281 155.777344 67.371094 164.347656 81.234375 166.84375 C 92.84375 168.941406 104.847656 171.109375 116.871094 171.257812 C 119.269531 171.292969 121.609375 171.238281 123.828125 171.101562 C 126.449219 170.953125 129.027344 170.6875 131.496094 170.3125 C 131.527344 170.308594 131.5625 170.304688 131.597656 170.300781 C 131.664062 170.296875 131.738281 170.285156 131.8125 170.269531 C 131.851562 170.257812 131.890625 170.253906 131.929688 170.246094 C 133.585938 170 135.246094 169.6875 136.863281 169.320312 C 138.382812 168.980469 139.804688 168.621094 141.226562 168.210938 L 141.632812 168.09375 C 142.425781 167.855469 143.265625 168.300781 143.507812 169.089844 C 143.746094 169.882812 143.300781 170.722656 142.511719 170.964844 L 142.082031 171.085938 C 140.574219 171.519531 139.089844 171.898438 137.519531 172.246094 C 135.855469 172.625 134.140625 172.949219 132.421875 173.207031 C 132.246094 173.242188 132.066406 173.269531 131.902344 173.285156 C 129.351562 173.671875 126.695312 173.945312 124.003906 174.097656 C 122.175781 174.210938 120.265625 174.265625 118.308594 174.265625" style="fill: rgb(173, 160, 132);"/></g><g id="__id126_sb1y59vl4g"><path d="M 87.957031 37.976562 C 87.296875 37.976562 86.691406 37.535156 86.507812 36.871094 C 84.804688 30.621094 83.8125 25.320312 83.390625 20.183594 C 83.230469 18.105469 83.160156 16.140625 83.171875 14.160156 C 83.195312 11.324219 83.449219 8.507812 83.695312 5.78125 L 83.796875 4.609375 C 83.890625 3.539062 83.980469 2.472656 84.054688 1.398438 C 84.113281 0.574219 84.828125 -0.0507812 85.65625 0.0078125 C 86.484375 0.0664062 87.105469 0.78125 87.046875 1.609375 C 86.972656 2.699219 86.878906 3.78125 86.785156 4.867188 L 86.683594 6.023438 C 86.441406 8.714844 86.195312 11.472656 86.171875 14.183594 C 86.160156 16.074219 86.230469 17.960938 86.382812 19.945312 C 86.792969 24.953125 87.726562 29.929688 89.402344 36.078125 C 89.621094 36.878906 89.152344 37.703125 88.351562 37.921875 C 88.21875 37.957031 88.085938 37.976562 87.957031 37.976562" style="fill: rgb(173, 160, 132);"/></g><g id="__id127_sb1y59vl4g"><path d="M 124.304688 45.957031 C 123.796875 45.957031 123.300781 45.695312 123.019531 45.230469 C 112.003906 26.96875 100.117188 13.105469 87.683594 4.035156 C 87.160156 3.640625 86.648438 3.28125 86.140625 2.925781 L 87.847656 0.457031 L 86.984375 1.683594 L 87.867188 0.46875 C 88.40625 0.847656 88.945312 1.230469 89.472656 1.632812 C 102.207031 10.921875 114.367188 25.074219 125.589844 43.679688 C 126.015625 44.390625 125.789062 45.3125 125.078125 45.738281 C 124.835938 45.886719 124.570312 45.957031 124.304688 45.957031" style="fill: rgb(173, 160, 132);"/></g></g></svg>