<svg xmlns="http://www.w3.org/2000/svg" xmlns:xlink="http://www.w3.org/1999/xlink" preserveAspectRatio="xMidYMid meet" version="1.0" viewBox="-0.6 -1.3 234.7 500.9" zoomAndPan="magnify" style="fill: rgb(0, 0, 0);" original_string_length="55318"><defs><clipPath id="__id0_sb1y59vl4g"><path d="M 62 276 L 149 276 L 149 499.621094 L 62 499.621094 Z M 62 276"/></clipPath><clipPath id="__id1_sb1y59vl4g"><path d="M 130 69 L 234.179688 69 L 234.179688 138 L 130 138 Z M 130 69"/></clipPath></defs><g><g id="__id2_sb1y59vl4g"><path d="M 94.472656 382.726562 C 94.1875 382.726562 93.898438 382.644531 93.640625 382.472656 C 92.953125 382.015625 92.765625 381.082031 93.222656 380.394531 C 96.492188 375.484375 99.167969 370.195312 101.851562 364.75 C 110.625 346.964844 119.394531 328.695312 127.914062 310.449219 C 129.050781 308.027344 130.175781 305.589844 131.289062 303.148438 L 132.304688 300.929688 C 140.539062 282.636719 148.257812 262.832031 148.949219 242.011719 C 148.980469 241.078125 149.003906 240.148438 149.003906 239.21875 C 149.003906 237.042969 148.9375 234.847656 148.804688 232.695312 C 147.871094 217.285156 143.625 201.78125 139.519531 186.785156 C 134.726562 169.292969 129.769531 151.203125 130.027344 133.097656 C 130.027344 132.925781 130.027344 132.71875 130.042969 132.523438 C 130.105469 131.695312 130.824219 131.085938 131.648438 131.140625 C 132.476562 131.199219 133.097656 131.921875 133.035156 132.746094 C 133.023438 132.867188 133.027344 133 133.027344 133.121094 C 132.773438 150.820312 137.675781 168.699219 142.410156 185.992188 C 146.558594 201.136719 150.847656 216.792969 151.796875 232.515625 C 151.933594 234.726562 152.003906 236.984375 152.003906 239.21875 C 152.003906 240.183594 151.980469 241.148438 151.945312 242.113281 C 151.238281 263.453125 143.398438 283.585938 135.035156 302.167969 L 134.015625 304.398438 C 132.898438 306.84375 131.773438 309.292969 130.628906 311.722656 C 122.105469 329.984375 113.324219 348.273438 104.539062 366.078125 C 101.921875 371.390625 99.085938 377.003906 95.722656 382.054688 C 95.433594 382.488281 94.957031 382.726562 94.472656 382.726562" style="fill: rgb(173, 160, 132);"/></g><g id="__id3_sb1y59vl4g"><path d="M 66.382812 279.53125 C 65.746094 279.53125 65.117188 279.488281 64.492188 279.40625 C 64.125 279.355469 63.789062 279.304688 63.433594 279.226562 C 61.753906 278.878906 60.101562 278.226562 58.390625 277.234375 C 55.671875 275.664062 53.285156 273.496094 51.304688 271.582031 C 41.199219 261.828125 32.367188 250.828125 25.050781 238.886719 C 23.339844 236.097656 21.9375 233.378906 20.882812 230.808594 C 17.421875 222.359375 17.507812 215.339844 21.140625 209.941406 C 23.039062 207.121094 25.660156 205.480469 28.335938 205.445312 C 30.035156 205.445312 31.566406 206.03125 32.929688 206.570312 C 41.972656 210.195312 53.359375 213.652344 61.847656 208.40625 C 63.082031 207.648438 64.261719 206.707031 65.660156 205.527344 L 66.398438 204.90625 C 69.832031 202.007812 73.382812 199.011719 78.097656 199.214844 C 85.597656 199.535156 89.339844 207.695312 90.597656 211.191406 C 91.136719 212.65625 91.621094 214.214844 92.035156 215.808594 C 93.28125 220.636719 93.859375 225.777344 93.753906 231.09375 C 93.734375 231.921875 93.039062 232.597656 92.222656 232.5625 C 91.394531 232.546875 90.734375 231.859375 90.753906 231.03125 C 90.855469 225.988281 90.308594 221.121094 89.132812 216.5625 C 88.742188 215.0625 88.285156 213.601562 87.78125 212.21875 C 86.953125 209.925781 83.8125 202.460938 77.96875 202.210938 C 74.421875 202.070312 71.464844 204.554688 68.335938 207.195312 L 67.589844 207.824219 C 66.09375 209.085938 64.8125 210.101562 63.425781 210.960938 C 53.792969 216.910156 41.511719 213.242188 31.890625 209.386719 C 30.617188 208.878906 29.476562 208.425781 28.382812 208.445312 C 26.726562 208.46875 24.949219 209.652344 23.628906 211.613281 C 20.589844 216.132812 20.601562 222.207031 23.660156 229.671875 C 24.652344 232.09375 25.980469 234.667969 27.605469 237.320312 C 34.792969 249.046875 43.464844 259.847656 53.390625 269.425781 C 55.238281 271.210938 57.457031 273.230469 59.894531 274.636719 C 61.324219 275.46875 62.683594 276.007812 64.054688 276.292969 C 64.351562 276.355469 64.621094 276.394531 64.898438 276.433594 C 68.035156 276.847656 71.421875 275.925781 75.238281 273.613281 C 75.945312 273.1875 76.867188 273.410156 77.296875 274.121094 C 77.726562 274.828125 77.5 275.753906 76.792969 276.183594 C 73.085938 278.425781 69.660156 279.53125 66.382812 279.53125" style="fill: rgb(173, 160, 132);"/></g><g id="__id4_sb1y59vl4g"><path d="M 72.070312 286.449219 C 73.289062 286.671875 74.503906 286.90625 75.695312 287.140625 C 80.828125 288.136719 86.136719 289.160156 91.324219 289.03125 C 103.859375 288.691406 115.714844 280.835938 121.507812 269.808594 C 117.46875 273.144531 112.488281 275.320312 107.242188 275.914062 C 104.996094 276.179688 102.738281 276.144531 100.554688 276.113281 L 100.109375 276.105469 C 97.488281 276.058594 95.140625 276.050781 92.855469 276.425781 C 89.867188 276.914062 87.015625 278.085938 84.867188 279.050781 C 82.832031 279.964844 80.820312 280.980469 78.894531 282.074219 C 76.558594 283.394531 74.273438 284.859375 72.070312 286.449219 Z M 90.375 292.042969 C 85.207031 292.042969 80.085938 291.046875 75.125 290.085938 C 73.050781 289.683594 70.917969 289.269531 68.816406 288.933594 C 68.1875 289.359375 67.328125 289.246094 66.828125 288.652344 C 66.691406 288.488281 66.59375 288.300781 66.539062 288.109375 C 66.335938 287.8125 66.238281 287.445312 66.289062 287.0625 C 66.398438 286.242188 67.152344 285.667969 67.972656 285.773438 C 67.972656 285.773438 67.976562 285.773438 67.976562 285.773438 C 70.992188 283.417969 74.15625 281.304688 77.417969 279.464844 C 79.421875 278.324219 81.515625 277.265625 83.636719 276.3125 C 85.953125 275.273438 89.039062 274.007812 92.371094 273.464844 C 94.902344 273.050781 97.394531 273.058594 100.15625 273.105469 L 100.601562 273.113281 C 102.78125 273.148438 104.84375 273.179688 106.898438 272.9375 C 114.042969 272.125 120.628906 268.023438 124.515625 261.964844 C 124.914062 261.347656 125.699219 261.105469 126.371094 261.394531 C 127.046875 261.683594 127.410156 262.417969 127.234375 263.132812 C 123.300781 279.15625 107.898438 291.582031 91.402344 292.027344 C 91.0625 292.039062 90.71875 292.042969 90.375 292.042969" style="fill: rgb(173, 160, 132);"/></g><g id="__id5_sb1y59vl4g"><path d="M 78.15625 282.269531 C 77.601562 282.269531 77.066406 281.960938 76.808594 281.429688 C 75.863281 279.492188 75.105469 277.421875 74.558594 275.269531 C 72.269531 266.363281 73.398438 256.257812 77.652344 247.554688 C 80.753906 241.238281 85.195312 235.480469 91.242188 229.953125 C 95.980469 225.589844 101.78125 221.328125 108.972656 216.933594 C 110.558594 215.960938 115.390625 212.992188 119.136719 215.625 C 122.859375 218.234375 121.726562 223.765625 121.355469 225.582031 L 121.253906 226.074219 C 118.308594 240.054688 113.546875 253.574219 107.101562 266.257812 C 105.105469 270.191406 103.261719 273.148438 101.292969 275.554688 C 100.765625 276.195312 99.824219 276.292969 99.179688 275.765625 C 98.539062 275.242188 98.445312 274.296875 98.96875 273.65625 C 100.796875 271.417969 102.53125 268.636719 104.425781 264.902344 C 110.753906 252.449219 115.425781 239.179688 118.316406 225.457031 L 118.421875 224.964844 C 119.160156 221.332031 118.835938 219.074219 117.410156 218.078125 C 115.996094 217.085938 113.683594 217.558594 110.539062 219.492188 C 103.515625 223.785156 97.867188 227.929688 93.269531 232.164062 C 87.503906 237.4375 83.277344 242.902344 80.347656 248.875 C 76.457031 256.824219 75.382812 266.417969 77.46875 274.523438 C 77.964844 276.484375 78.648438 278.363281 79.503906 280.113281 C 79.867188 280.855469 79.558594 281.753906 78.8125 282.117188 C 78.601562 282.222656 78.378906 282.269531 78.15625 282.269531" style="fill: rgb(173, 160, 132);"/></g><g id="__id6_sb1y59vl4g"><path d="M 88.984375 346.945312 C 88.515625 346.945312 88.046875 346.722656 87.757812 346.304688 C 78.238281 332.734375 64.578125 321.894531 49.289062 315.777344 C 48.519531 315.472656 48.148438 314.597656 48.453125 313.828125 C 48.761719 313.058594 49.636719 312.6875 50.402344 312.992188 C 66.226562 319.320312 80.363281 330.539062 90.214844 344.582031 C 90.6875 345.261719 90.523438 346.195312 89.847656 346.671875 C 89.585938 346.855469 89.285156 346.945312 88.984375 346.945312" style="fill: rgb(173, 160, 132);"/></g><g id="__id7_sb1y59vl4g"><path d="M 109.40625 421.875 C 109.324219 421.875 109.246094 421.867188 109.164062 421.855469 C 108.34375 421.722656 107.789062 420.949219 107.925781 420.132812 C 109.585938 409.964844 113.6875 400.367188 119.785156 392.371094 C 120.289062 391.714844 121.230469 391.589844 121.890625 392.089844 C 122.546875 392.59375 122.675781 393.53125 122.171875 394.191406 C 116.371094 401.796875 112.46875 410.933594 110.886719 420.617188 C 110.765625 421.351562 110.128906 421.875 109.40625 421.875" style="fill: rgb(173, 160, 132);"/></g><g clip-path="url(#__id0_sb1y59vl4g)" id="__id8_sb1y59vl4g"><path d="M 147.023438 499.621094 C 146.488281 499.621094 145.96875 499.332031 145.699219 498.828125 C 134.824219 478.53125 124.445312 457.515625 114.855469 436.375 C 112.507812 431.183594 110.210938 426.003906 108.027344 420.984375 C 108.015625 420.949219 108 420.914062 107.988281 420.878906 C 106.570312 417.644531 105.160156 414.359375 103.796875 411.117188 C 102.757812 408.65625 101.730469 406.191406 100.722656 403.707031 C 97.1875 395 94.816406 388.1875 93.027344 381.617188 C 92.355469 379.164062 91.757812 376.65625 91.246094 374.15625 C 90.867188 372.335938 90.515625 370.382812 90.207031 368.355469 C 89.714844 365.28125 89.289062 361.980469 88.824219 357.652344 C 88.652344 356.128906 88.488281 354.597656 88.328125 353.066406 C 88.058594 350.582031 87.796875 348.097656 87.496094 345.625 C 86.765625 339.617188 85.738281 332.535156 83.636719 325.558594 C 80.933594 316.542969 76.480469 307.855469 72.171875 299.453125 C 70.308594 295.820312 68.382812 292.066406 66.621094 288.328125 C 66.554688 288.207031 66.464844 288.011719 66.390625 287.835938 C 65.089844 285.078125 63.980469 282.523438 63.03125 280.085938 C 62.792969 279.5 62.5625 278.882812 62.339844 278.269531 C 62.0625 277.488281 62.46875 276.628906 63.246094 276.347656 C 64.023438 276.070312 64.886719 276.476562 65.164062 277.253906 C 65.371094 277.832031 65.589844 278.410156 65.820312 278.980469 C 66.75 281.371094 67.832031 283.863281 69.132812 286.621094 C 69.199219 286.78125 69.246094 286.878906 69.300781 286.980469 C 71.074219 290.738281 72.988281 294.476562 74.839844 298.085938 C 79.210938 306.605469 83.726562 315.417969 86.511719 324.695312 C 88.675781 331.890625 89.730469 339.128906 90.472656 345.265625 C 90.777344 347.753906 91.042969 350.25 91.308594 352.75 C 91.472656 354.273438 91.632812 355.800781 91.804688 357.324219 C 92.265625 361.605469 92.6875 364.863281 93.171875 367.894531 C 93.472656 369.875 93.816406 371.773438 94.183594 373.550781 C 94.683594 375.988281 95.265625 378.4375 95.917969 380.828125 C 97.675781 387.28125 100.015625 393.988281 103.503906 402.578125 C 104.503906 405.054688 105.527344 407.503906 106.5625 409.953125 C 107.933594 413.214844 109.355469 416.519531 110.777344 419.773438 C 110.796875 419.808594 110.808594 419.84375 110.820312 419.882812 C 112.984375 424.859375 115.261719 429.992188 117.589844 435.136719 C 127.148438 456.21875 137.496094 477.171875 148.34375 497.410156 C 148.734375 498.140625 148.460938 499.050781 147.730469 499.441406 C 147.503906 499.5625 147.261719 499.621094 147.023438 499.621094" style="fill: rgb(173, 160, 132);"/></g><g id="__id9_sb1y59vl4g"><path d="M 102.113281 404.644531 C 102.074219 404.644531 102.035156 404.640625 101.992188 404.636719 C 101.167969 404.570312 100.554688 403.847656 100.617188 403.023438 C 101.105469 396.925781 102.332031 391.535156 104.363281 386.550781 C 106.621094 381.015625 109.933594 375.992188 113.140625 371.132812 C 114.75 368.695312 116.410156 366.175781 117.90625 363.636719 C 118.914062 361.929688 119.828125 360.195312 120.621094 358.492188 C 120.972656 357.738281 121.863281 357.414062 122.613281 357.765625 C 123.367188 358.113281 123.691406 359.007812 123.339844 359.757812 C 122.507812 361.550781 121.546875 363.367188 120.488281 365.160156 C 118.960938 367.761719 117.273438 370.316406 115.644531 372.785156 C 112.519531 377.523438 109.285156 382.421875 107.144531 387.683594 C 105.226562 392.382812 104.070312 397.476562 103.609375 403.261719 C 103.546875 404.046875 102.890625 404.644531 102.113281 404.644531" style="fill: rgb(173, 160, 132);"/></g><g id="__id10_sb1y59vl4g"><path d="M 116.222656 437.257812 C 115.75 437.257812 115.285156 437.03125 114.992188 436.613281 C 114.519531 435.933594 114.6875 435 115.363281 434.527344 C 122.308594 429.6875 127.269531 421.324219 128.980469 411.582031 C 130.523438 402.824219 129.738281 393.207031 126.445312 380.402344 C 125.457031 376.5625 124.316406 372.675781 123.214844 368.917969 C 122.3125 365.84375 121.382812 362.664062 120.53125 359.515625 C 120.316406 358.714844 120.789062 357.890625 121.59375 357.675781 C 122.386719 357.457031 123.214844 357.933594 123.429688 358.734375 C 124.269531 361.855469 125.195312 365.015625 126.09375 368.074219 C 127.203125 371.855469 128.351562 375.765625 129.351562 379.65625 C 131.644531 388.566406 134.011719 400.308594 131.933594 412.101562 C 130.085938 422.625 124.671875 431.695312 117.078125 436.988281 C 116.820312 437.167969 116.519531 437.257812 116.222656 437.257812" style="fill: rgb(173, 160, 132);"/></g><g id="__id11_sb1y59vl4g"><path d="M 91.691406 369.628906 C 91.609375 369.628906 91.527344 369.621094 91.445312 369.609375 C 83.890625 368.351562 76.429688 363.011719 70.972656 354.949219 C 67.421875 349.695312 64.875 343.835938 62.410156 338.171875 C 61.292969 335.601562 60.136719 332.945312 58.910156 330.398438 C 55.777344 323.914062 52.472656 319.03125 48.800781 315.460938 C 48.207031 314.882812 48.195312 313.933594 48.769531 313.339844 C 49.347656 312.746094 50.296875 312.730469 50.890625 313.3125 C 54.820312 317.128906 58.324219 322.289062 61.609375 329.09375 C 62.863281 331.695312 64.03125 334.378906 65.160156 336.972656 C 67.570312 342.515625 70.066406 348.246094 73.460938 353.269531 C 78.457031 360.652344 85.191406 365.527344 91.933594 366.648438 C 92.753906 366.785156 93.304688 367.558594 93.167969 368.375 C 93.046875 369.109375 92.410156 369.628906 91.691406 369.628906" style="fill: rgb(173, 160, 132);"/></g><g id="__id12_sb1y59vl4g"><path d="M 90.316406 358.992188 C 89.851562 358.992188 89.398438 358.777344 89.101562 358.375 C 84.503906 352.066406 79.277344 346.214844 73.570312 340.984375 C 72.957031 340.421875 72.917969 339.472656 73.476562 338.863281 C 74.035156 338.253906 74.988281 338.210938 75.597656 338.773438 C 81.449219 344.136719 86.808594 350.140625 91.527344 356.609375 C 92.015625 357.277344 91.867188 358.214844 91.199219 358.703125 C 90.933594 358.898438 90.621094 358.992188 90.316406 358.992188" style="fill: rgb(173, 160, 132);"/></g><g id="__id13_sb1y59vl4g"><path d="M 35.863281 304.148438 C 26.410156 304.148438 16.914062 301.105469 9.351562 295.472656 C 8.695312 294.984375 8.550781 294.0625 9.027344 293.394531 C 9.503906 292.730469 10.425781 292.570312 11.101562 293.035156 C 17.09375 297.183594 25.421875 295.199219 33.53125 292.433594 C 37.558594 291.058594 41.070312 289.699219 43.210938 286.96875 C 43.875 286.128906 44.398438 285.15625 44.953125 284.128906 C 45.328125 283.433594 45.714844 282.714844 46.15625 282.019531 C 46.601562 281.320312 47.527344 281.109375 48.226562 281.554688 C 48.925781 282 49.132812 282.925781 48.691406 283.625 C 48.304688 284.234375 47.957031 284.875 47.59375 285.550781 C 47.003906 286.648438 46.390625 287.78125 45.570312 288.820312 C 42.707031 292.472656 38.15625 294.027344 34.496094 295.273438 C 29.929688 296.828125 25.28125 298.148438 20.875 298.386719 C 27.972656 301.089844 35.832031 301.871094 43.269531 300.460938 C 52.347656 298.734375 60.710938 293.855469 66.816406 286.726562 C 66.859375 286.675781 66.902344 286.632812 66.945312 286.589844 C 67 286.53125 67.050781 286.46875 67.097656 286.40625 C 67.613281 285.757812 68.554688 285.648438 69.203125 286.164062 C 69.851562 286.679688 69.960938 287.621094 69.449219 288.273438 C 69.339844 288.40625 69.21875 288.554688 69.09375 288.691406 L 69.09375 288.6875 C 69.070312 288.714844 69.046875 288.738281 69.023438 288.761719 C 62.480469 296.363281 53.539062 301.5625 43.828125 303.40625 C 41.207031 303.90625 38.535156 304.148438 35.863281 304.148438" style="fill: rgb(173, 160, 132);"/></g><g id="__id14_sb1y59vl4g"><path d="M 64.429688 281.042969 C 64.109375 281.042969 63.792969 280.941406 63.519531 280.734375 C 62.085938 279.644531 60.429688 278.953125 58.734375 278.742188 C 58.488281 278.714844 58.222656 278.683594 57.960938 278.675781 C 57.132812 278.640625 56.484375 277.945312 56.519531 277.117188 C 56.550781 276.289062 57.257812 275.640625 58.074219 275.675781 C 58.417969 275.691406 58.761719 275.726562 59.09375 275.765625 C 61.324219 276.042969 63.480469 276.933594 65.335938 278.347656 C 65.996094 278.851562 66.125 279.789062 65.621094 280.449219 C 65.328125 280.839844 64.878906 281.042969 64.429688 281.042969" style="fill: rgb(173, 160, 132);"/></g><g id="__id15_sb1y59vl4g"><path d="M 5.015625 247.464844 C 4.203125 247.464844 3.652344 247.59375 3.351562 247.859375 C 2.570312 248.546875 3.1875 250.378906 4.085938 251.789062 C 12.71875 265.363281 28.65625 273.355469 41.460938 279.777344 C 42.828125 280.46875 44.238281 281.179688 45.65625 281.34375 C 46.15625 281.402344 46.6875 281.402344 47.242188 281.332031 C 47.304688 281.324219 47.363281 281.316406 47.425781 281.308594 C 47.28125 281.207031 47.132812 281.101562 46.988281 280.988281 C 43.945312 278.710938 41.605469 275.730469 39.339844 272.847656 C 38.851562 272.226562 38.363281 271.605469 37.871094 270.992188 C 32.652344 264.476562 26.601562 258.679688 19.875 253.761719 C 16.203125 251.066406 11.308594 247.921875 6.015625 247.511719 C 5.765625 247.488281 5.527344 247.480469 5.292969 247.46875 C 5.195312 247.46875 5.105469 247.464844 5.015625 247.464844 Z M 46.390625 284.386719 C 46.019531 284.386719 45.65625 284.363281 45.300781 284.320312 C 43.367188 284.097656 41.636719 283.226562 40.113281 282.460938 C 26.980469 275.871094 10.636719 267.675781 1.554688 253.402344 C -0.449219 250.261719 -0.519531 247.273438 1.367188 245.613281 C 2.605469 244.515625 4.261719 244.433594 5.40625 244.472656 C 5.703125 244.484375 5.980469 244.496094 6.261719 244.519531 C 12.296875 244.988281 17.65625 248.414062 21.648438 251.34375 C 28.585938 256.414062 34.832031 262.394531 40.210938 269.113281 C 40.707031 269.734375 41.203125 270.363281 41.699219 270.992188 C 43.941406 273.847656 46.0625 276.546875 48.785156 278.589844 C 49.152344 278.863281 49.53125 279.121094 49.914062 279.351562 C 50.335938 279.617188 50.761719 279.859375 51.195312 280.070312 C 53.417969 279.03125 55.417969 277.660156 56.953125 276.117188 C 57.304688 275.777344 57.636719 275.410156 57.980469 274.988281 C 58.507812 274.34375 59.453125 274.246094 60.09375 274.773438 C 60.734375 275.300781 60.828125 276.242188 60.304688 276.886719 C 59.882812 277.398438 59.476562 277.847656 59.0625 278.25 C 57.285156 280.039062 54.964844 281.628906 52.371094 282.828125 L 51.847656 283.070312 C 51.832031 283.078125 51.816406 283.085938 51.800781 283.089844 C 50.261719 283.765625 48.886719 284.164062 47.59375 284.3125 C 47.1875 284.363281 46.785156 284.386719 46.390625 284.386719" style="fill: rgb(173, 160, 132);"/></g><g id="__id16_sb1y59vl4g"><path d="M 150.503906 240.722656 C 149.976562 240.722656 149.464844 240.441406 149.191406 239.945312 C 148.789062 239.21875 149.054688 238.304688 149.78125 237.90625 C 150.078125 237.742188 150.363281 237.578125 150.648438 237.394531 C 164.296875 229.417969 175.0625 221.15625 183.617188 212.113281 C 195.613281 199.441406 203.339844 184.957031 205.960938 170.226562 C 207.015625 164.335938 207.296875 158.144531 207.566406 152.15625 C 207.832031 146.300781 208.105469 140.246094 209.101562 134.433594 C 209.242188 133.617188 210.015625 133.070312 210.832031 133.207031 C 211.648438 133.347656 212.199219 134.121094 212.058594 134.941406 C 211.09375 140.570312 210.824219 146.53125 210.5625 152.292969 C 210.289062 158.378906 210.003906 164.667969 208.914062 170.753906 C 206.191406 186.0625 198.195312 201.078125 185.796875 214.175781 C 177.042969 223.429688 166.058594 231.859375 152.21875 239.953125 C 151.929688 240.140625 151.585938 240.339844 151.226562 240.535156 C 150.996094 240.660156 150.75 240.722656 150.503906 240.722656" style="fill: rgb(173, 160, 132);"/></g><g id="__id17_sb1y59vl4g"><path d="M 150.378906 237.925781 C 149.585938 237.925781 148.925781 237.304688 148.882812 236.503906 C 148.816406 235.253906 148.789062 233.972656 148.800781 232.59375 C 148.960938 217.15625 154.738281 201.597656 164.652344 189.90625 C 169.375 184.339844 175.019531 179.550781 180.480469 174.921875 C 187.101562 169.308594 193.949219 163.503906 198.964844 156.394531 C 203.027344 150.644531 206.167969 143.8125 209.148438 134.242188 C 209.394531 133.449219 210.234375 133.007812 211.023438 133.253906 C 211.816406 133.5 212.257812 134.34375 212.011719 135.132812 C 208.9375 145.019531 205.667969 152.109375 201.414062 158.125 C 196.179688 165.542969 189.1875 171.472656 182.421875 177.210938 C 177.054688 181.761719 171.503906 186.46875 166.941406 191.84375 C 157.472656 203.011719 151.953125 217.875 151.800781 232.621094 C 151.789062 233.9375 151.816406 235.15625 151.878906 236.347656 C 151.921875 237.175781 151.285156 237.878906 150.460938 237.925781 C 150.433594 237.925781 150.40625 237.925781 150.378906 237.925781" style="fill: rgb(173, 160, 132);"/></g><g id="__id18_sb1y59vl4g"><path d="M 151.464844 240.15625 C 151.382812 240.15625 151.296875 240.148438 151.214844 240.136719 C 150.394531 240 149.84375 239.226562 149.984375 238.40625 C 152.675781 222.410156 161.183594 207.230469 173.324219 196.761719 C 173.953125 196.21875 174.898438 196.289062 175.441406 196.917969 C 175.980469 197.542969 175.910156 198.492188 175.285156 199.03125 C 163.664062 209.054688 155.519531 223.585938 152.941406 238.90625 C 152.816406 239.636719 152.183594 240.15625 151.464844 240.15625" style="fill: rgb(173, 160, 132);"/></g><g id="__id19_sb1y59vl4g"><path d="M 134.109375 302.984375 C 139.523438 306.953125 144.191406 308.710938 148.734375 308.503906 C 155.5625 308.1875 161.3125 303.265625 164.933594 299.191406 C 170.019531 293.472656 173.886719 286.570312 176.113281 279.238281 C 176.984375 276.386719 177.632812 273.378906 178.261719 270.472656 C 178.574219 269.027344 178.890625 267.5625 179.234375 266.101562 C 172.609375 274.816406 164.605469 282.542969 155.703125 288.773438 C 152.714844 290.867188 149.574219 292.828125 146.542969 294.726562 C 142.527344 297.242188 138.371094 299.839844 134.578125 302.742188 C 134.433594 302.855469 134.273438 302.933594 134.109375 302.984375 Z M 148.03125 311.519531 C 141.25 311.519531 135.523438 307.8125 131.75 304.96875 C 131.089844 304.46875 130.957031 303.53125 131.457031 302.867188 C 131.6875 302.558594 132.015625 302.367188 132.367188 302.296875 C 131.996094 301.65625 132.152344 300.820312 132.757812 300.359375 C 136.660156 297.371094 140.875 294.734375 144.953125 292.183594 C 147.953125 290.308594 151.054688 288.363281 153.984375 286.316406 C 165.378906 278.34375 175.253906 267.847656 182.550781 255.960938 C 182.964844 255.28125 183.832031 255.046875 184.53125 255.421875 C 185.230469 255.792969 185.519531 256.644531 185.191406 257.367188 C 183.230469 261.671875 182.238281 266.253906 181.191406 271.105469 C 180.550781 274.070312 179.890625 277.140625 178.984375 280.113281 C 176.632812 287.855469 172.546875 295.144531 167.175781 301.183594 C 163.171875 305.6875 156.746094 311.132812 148.871094 311.5 C 148.589844 311.515625 148.3125 311.519531 148.03125 311.519531" style="fill: rgb(173, 160, 132);"/></g><g id="__id20_sb1y59vl4g"><path d="M 130.453125 132.105469 Z M 114.257812 141.570312 C 113.910156 141.570312 113.566406 141.5625 113.21875 141.550781 C 105.542969 141.246094 98.566406 137.582031 92.757812 134.039062 C 92.050781 133.609375 91.824219 132.6875 92.257812 131.980469 C 92.6875 131.273438 93.609375 131.046875 94.320312 131.480469 C 99.800781 134.820312 106.347656 138.273438 113.339844 138.550781 C 119.140625 138.785156 125.046875 136.730469 129.535156 132.894531 C 129.875 132.617188 130.179688 132.347656 130.464844 132.058594 C 130.503906 132.023438 130.539062 131.988281 130.578125 131.957031 C 131.097656 131.425781 131.941406 131.351562 132.554688 131.808594 C 133.214844 132.308594 133.347656 133.246094 132.847656 133.910156 C 132.734375 134.0625 132.609375 134.175781 132.519531 134.25 C 132.175781 134.589844 131.816406 134.90625 131.453125 135.199219 C 126.691406 139.269531 120.46875 141.570312 114.257812 141.570312" style="fill: rgb(173, 160, 132);"/></g><g id="__id21_sb1y59vl4g"><path d="M 93.535156 134.261719 C 93.308594 134.261719 93.082031 134.210938 92.867188 134.101562 C 91.792969 133.566406 90.742188 132.910156 89.738281 132.15625 C 89.097656 131.671875 88.949219 130.765625 89.410156 130.101562 C 89.867188 129.441406 90.765625 129.257812 91.445312 129.691406 C 92.394531 130.292969 93.34375 130.886719 94.320312 131.480469 C 95.003906 131.898438 95.238281 132.78125 94.851562 133.488281 C 94.578125 133.980469 94.066406 134.261719 93.535156 134.261719" style="fill: rgb(173, 160, 132);"/></g><g id="__id22_sb1y59vl4g"><path d="M 102.664062 136.40625 C 99.296875 136.40625 95.90625 135.632812 92.863281 134.101562 C 92.121094 133.726562 91.824219 132.824219 92.199219 132.085938 C 92.570312 131.34375 93.472656 131.050781 94.210938 131.421875 C 98.910156 133.785156 104.558594 134.058594 109.320312 132.15625 C 111.035156 131.46875 112.640625 130.527344 114.335938 129.53125 C 115.394531 128.910156 116.484375 128.269531 117.613281 127.695312 C 117.695312 127.652344 117.847656 127.570312 118.054688 127.519531 C 118.859375 127.316406 119.675781 127.804688 119.875 128.609375 C 120.058594 129.347656 119.660156 130.097656 118.972656 130.367188 C 117.886719 130.925781 116.855469 131.53125 115.855469 132.121094 C 114.136719 133.128906 112.363281 134.167969 110.4375 134.941406 C 107.984375 135.921875 105.332031 136.40625 102.664062 136.40625" style="fill: rgb(173, 160, 132);"/></g><g id="__id23_sb1y59vl4g"><path d="M 118.421875 130.464844 C 117.875 130.464844 117.347656 130.160156 117.082031 129.640625 C 116.707031 128.902344 117.003906 128 117.742188 127.625 C 121.460938 125.734375 124.839844 125.109375 127.804688 125.761719 C 129.0625 126.042969 130.277344 126.621094 131.316406 127.433594 C 131.410156 127.496094 131.496094 127.566406 131.5625 127.632812 C 132.148438 128.21875 132.148438 129.167969 131.5625 129.753906 C 131.035156 130.28125 130.214844 130.332031 129.628906 129.910156 C 129.585938 129.882812 129.542969 129.855469 129.503906 129.820312 C 128.804688 129.269531 127.992188 128.878906 127.152344 128.691406 C 124.894531 128.191406 122.183594 128.734375 119.101562 130.300781 C 118.882812 130.410156 118.648438 130.464844 118.421875 130.464844" style="fill: rgb(173, 160, 132);"/></g><g id="__id24_sb1y59vl4g"><path d="M 131.617188 131.308594 C 131.222656 131.308594 130.828125 131.152344 130.535156 130.84375 C 130.476562 130.785156 130.425781 130.722656 130.382812 130.660156 C 130.179688 130.421875 129.96875 130.210938 129.746094 130.019531 C 129.117188 129.476562 129.050781 128.53125 129.59375 127.902344 C 130.132812 127.277344 131.078125 127.207031 131.707031 127.746094 C 132.058594 128.050781 132.382812 128.378906 132.695312 128.746094 C 132.832031 128.886719 132.941406 129.050781 133.015625 129.238281 C 133.246094 129.804688 133.097656 130.46875 132.652344 130.890625 C 132.363281 131.167969 131.988281 131.308594 131.617188 131.308594" style="fill: rgb(173, 160, 132);"/></g><g id="__id25_sb1y59vl4g"><path d="M 133.375 133.808594 C 132.890625 133.808594 132.410156 133.570312 132.121094 133.132812 C 131.824219 132.683594 131.542969 132.222656 131.269531 131.761719 C 130.851562 131.050781 131.089844 130.128906 131.804688 129.710938 C 132.515625 129.289062 133.4375 129.527344 133.855469 130.238281 C 134.101562 130.65625 134.359375 131.074219 134.628906 131.484375 C 135.082031 132.175781 134.894531 133.105469 134.199219 133.5625 C 133.945312 133.730469 133.660156 133.808594 133.375 133.808594" style="fill: rgb(173, 160, 132);"/></g><g id="__id26_sb1y59vl4g"><path d="M 132.640625 128.945312 Z M 154.28125 146.480469 C 153.242188 146.480469 152.199219 146.402344 151.15625 146.242188 C 143.796875 145.117188 136.859375 140.335938 132.132812 133.132812 C 131.675781 132.441406 131.871094 131.507812 132.5625 131.054688 C 133.253906 130.601562 134.183594 130.792969 134.640625 131.484375 C 138.902344 137.980469 145.089844 142.28125 151.609375 143.277344 C 157.355469 144.152344 163.171875 142.164062 166.882812 138.425781 C 164.582031 138.929688 162.03125 138.847656 159.5625 138.105469 C 158.570312 137.816406 157.546875 137.40625 156.4375 136.851562 C 154.050781 135.644531 151.738281 133.933594 148.9375 131.308594 L 148.476562 130.875 C 146.65625 129.160156 144.773438 127.386719 142.570312 126.910156 C 141.285156 126.640625 139.855469 126.800781 138.757812 126.972656 C 136.363281 127.328125 134.25 128.015625 132.632812 128.960938 C 132.609375 128.972656 132.585938 128.988281 132.558594 129.003906 C 132.539062 129.015625 132.519531 129.027344 132.496094 129.039062 C 132.109375 129.265625 131.761719 129.503906 131.429688 129.769531 C 131.164062 130.003906 130.816406 130.148438 130.433594 130.148438 C 129.605469 130.148438 128.933594 129.476562 128.933594 128.648438 C 128.933594 128.171875 129.15625 127.746094 129.503906 127.46875 C 129.949219 127.105469 130.417969 126.78125 130.933594 126.480469 C 131.023438 126.421875 131.109375 126.371094 131.199219 126.328125 C 133.0625 125.234375 135.546875 124.417969 138.304688 124.007812 C 139.648438 123.796875 141.429688 123.601562 143.195312 123.980469 C 146.222656 124.632812 148.511719 126.789062 150.53125 128.691406 L 150.988281 129.117188 C 153.574219 131.542969 155.671875 133.101562 157.785156 134.171875 C 158.726562 134.640625 159.589844 134.988281 160.414062 135.230469 C 164.117188 136.339844 167.96875 135.644531 170.234375 133.460938 C 170.746094 132.96875 171.53125 132.902344 172.117188 133.300781 C 172.707031 133.699219 172.933594 134.460938 172.660156 135.113281 C 169.824219 141.945312 162.257812 146.480469 154.28125 146.480469" style="fill: rgb(173, 160, 132);"/></g><g id="__id27_sb1y59vl4g"><path d="M 118.421875 130.46875 C 118.195312 130.46875 117.984375 130.417969 117.792969 130.332031 C 109.558594 127.425781 101.734375 122.816406 95.167969 116.988281 C 91.515625 113.765625 88.234375 110.160156 85.425781 106.277344 C 83.867188 104.132812 82.40625 101.757812 82.300781 98.972656 C 82.1875 95.910156 84.300781 92.480469 87.636719 92.261719 C 89.441406 92.15625 90.964844 92.984375 92.308594 93.710938 L 92.414062 93.765625 C 97.667969 96.609375 103.34375 98.539062 109.285156 99.5 C 110.867188 99.757812 112.449219 99.941406 113.984375 100.046875 C 115.363281 100.144531 116.785156 100.191406 118.15625 100.238281 C 121.398438 100.347656 124.746094 100.460938 128.023438 101.222656 C 133.578125 102.507812 138.695312 105.792969 142.433594 110.46875 C 142.949219 111.113281 142.847656 112.058594 142.199219 112.574219 C 141.550781 113.09375 140.609375 112.988281 140.09375 112.34375 C 136.773438 108.191406 132.246094 105.28125 127.34375 104.144531 C 124.351562 103.449219 121.296875 103.34375 118.058594 103.238281 C 116.65625 103.191406 115.207031 103.140625 113.773438 103.039062 C 112.148438 102.925781 110.476562 102.730469 108.804688 102.460938 C 102.53125 101.445312 96.539062 99.40625 90.988281 96.40625 L 90.878906 96.347656 C 89.789062 95.757812 88.757812 95.195312 87.816406 95.253906 C 86.308594 95.355469 85.238281 97.242188 85.300781 98.859375 C 85.375 100.84375 86.570312 102.75 87.855469 104.515625 C 90.535156 108.222656 93.664062 111.664062 97.15625 114.742188 C 103.472656 120.34375 110.996094 124.773438 118.914062 127.546875 C 119.519531 127.757812 119.921875 128.324219 119.921875 128.960938 C 119.921875 129.789062 119.246094 130.46875 118.421875 130.46875" style="fill: rgb(173, 160, 132);"/></g><g id="__id28_sb1y59vl4g"><path d="M 119.785156 227.265625 C 119.347656 227.265625 118.910156 227.074219 118.613281 226.703125 C 118.097656 226.058594 118.199219 225.113281 118.847656 224.59375 C 121.523438 222.445312 123.5625 220.496094 125.257812 218.460938 C 128.90625 214.074219 130.8125 209.164062 130.625 204.628906 C 130.515625 201.910156 129.339844 198.273438 126.382812 196.96875 C 124.722656 196.242188 122.761719 196.351562 120.683594 196.464844 C 118.839844 196.5625 116.9375 196.667969 115.039062 196.210938 C 111.1875 195.277344 108.417969 192.277344 105.976562 189.628906 C 105.652344 189.277344 105.332031 188.929688 105.011719 188.589844 C 101.71875 185.097656 98.71875 183.570312 96.085938 184.054688 C 94.660156 184.316406 93.316406 185.160156 92.015625 185.980469 L 88.105469 188.449219 C 87.402344 188.890625 86.476562 188.679688 86.035156 187.976562 C 85.59375 187.277344 85.804688 186.351562 86.507812 185.910156 L 90.417969 183.441406 C 91.886719 182.515625 93.554688 181.46875 95.546875 181.105469 C 99.246094 180.425781 103.160156 182.25 107.195312 186.535156 C 107.523438 186.882812 107.851562 187.238281 108.179688 187.59375 C 110.441406 190.042969 112.777344 192.578125 115.742188 193.292969 C 117.210938 193.648438 118.816406 193.558594 120.519531 193.46875 C 122.855469 193.34375 125.273438 193.210938 127.589844 194.222656 C 131.066406 195.757812 133.433594 199.792969 133.621094 204.507812 C 133.84375 209.785156 131.691406 215.421875 127.5625 220.378906 C 125.761719 222.546875 123.523438 224.691406 120.722656 226.933594 C 120.445312 227.15625 120.113281 227.265625 119.785156 227.265625" style="fill: rgb(173, 160, 132);"/></g><g id="__id29_sb1y59vl4g"><path d="M 22.269531 231.738281 C 21.957031 231.738281 21.640625 231.640625 21.371094 231.4375 C 19.742188 230.214844 18.320312 228.824219 17.144531 227.628906 C 14.390625 224.832031 12.460938 222.386719 11.070312 219.933594 C 9.507812 217.226562 8.664062 214.59375 8.5 211.890625 C 8.011719 203.90625 14.574219 196.3125 22.550781 195.644531 C 24.277344 195.507812 25.980469 195.660156 27.417969 195.832031 C 27.878906 195.886719 28.335938 195.949219 28.792969 196.007812 C 30.460938 196.230469 32.039062 196.4375 33.609375 196.40625 C 39.339844 196.265625 44.792969 192.769531 49.171875 189.960938 C 51.644531 188.378906 56.242188 185.433594 60.683594 186.980469 C 64.179688 188.207031 66.523438 191.789062 67.472656 197.339844 C 68.011719 200.4375 68.230469 203.597656 68.125 206.726562 C 68.097656 207.554688 67.40625 208.191406 66.578125 208.175781 C 65.75 208.148438 65.101562 207.453125 65.128906 206.625 C 65.226562 203.703125 65.019531 200.75 64.519531 197.847656 C 63.992188 194.769531 62.726562 190.875 59.695312 189.8125 C 56.867188 188.824219 53.617188 190.675781 50.792969 192.488281 C 46.097656 195.496094 40.253906 199.246094 33.679688 199.40625 C 31.875 199.449219 30.105469 199.210938 28.398438 198.984375 C 27.949219 198.925781 27.503906 198.863281 27.058594 198.808594 C 25.773438 198.660156 24.261719 198.519531 22.796875 198.636719 C 16.496094 199.164062 11.105469 205.394531 11.496094 211.710938 C 11.628906 213.9375 12.34375 216.140625 13.675781 218.445312 C 14.9375 220.671875 16.71875 222.917969 19.28125 225.523438 C 20.382812 226.644531 21.707031 227.9375 23.171875 229.039062 C 23.835938 229.539062 23.96875 230.480469 23.46875 231.140625 C 23.175781 231.53125 22.726562 231.738281 22.269531 231.738281" style="fill: rgb(173, 160, 132);"/></g><g id="__id30_sb1y59vl4g"><path d="M 86.945312 188.625 Z M 87.304688 188.679688 Z M 90.585938 217.6875 C 90.226562 217.6875 89.867188 217.558594 89.582031 217.300781 C 88.96875 216.746094 88.914062 215.800781 89.46875 215.183594 C 92.425781 211.894531 94.28125 208.597656 95.148438 205.097656 C 96.738281 198.683594 93.625 190.296875 87.070312 188.660156 C 87.03125 188.652344 86.992188 188.648438 86.957031 188.636719 C 85.660156 188.328125 84.292969 188.269531 82.847656 188.207031 C 81.261719 188.140625 79.621094 188.070312 77.984375 187.652344 C 74.710938 186.808594 72.105469 184.773438 69.589844 182.804688 C 67.960938 181.53125 66.417969 180.324219 64.722656 179.433594 C 59.878906 176.871094 53.570312 177.203125 49.015625 180.265625 C 46.984375 181.636719 45.304688 183.460938 43.527344 185.390625 C 43.121094 185.832031 42.714844 186.273438 42.304688 186.710938 C 38.039062 191.230469 33.242188 195.226562 28.054688 198.582031 C 27.359375 199.03125 26.429688 198.832031 25.980469 198.136719 C 25.53125 197.441406 25.730469 196.511719 26.425781 196.0625 C 31.414062 192.835938 36.023438 188.996094 40.125 184.652344 C 40.523438 184.226562 40.921875 183.792969 41.320312 183.359375 C 43.136719 181.386719 45.015625 179.347656 47.339844 177.777344 C 52.789062 174.117188 60.335938 173.71875 66.121094 176.78125 C 68.054688 177.796875 69.773438 179.140625 71.4375 180.441406 C 73.816406 182.304688 76.0625 184.0625 78.730469 184.746094 C 80.058594 185.085938 81.476562 185.148438 82.976562 185.210938 C 84.472656 185.273438 86.015625 185.339844 87.5625 185.699219 C 87.648438 185.710938 87.734375 185.730469 87.820312 185.757812 C 96.265625 187.882812 99.996094 198.027344 98.058594 205.820312 C 97.085938 209.75 94.949219 213.578125 91.703125 217.1875 C 91.40625 217.519531 90.996094 217.6875 90.585938 217.6875" style="fill: rgb(173, 160, 132);"/></g><g id="__id31_sb1y59vl4g"><path d="M 6.132812 247.515625 C 5.757812 247.515625 5.382812 247.378906 5.09375 247.097656 C 3.722656 245.777344 2.613281 244.367188 1.800781 242.902344 C -0.5625 238.605469 -0.460938 232.28125 3.796875 229.125 C 4.488281 228.621094 5.199219 228.253906 5.886719 227.902344 C 6.441406 227.613281 6.964844 227.34375 7.429688 227.027344 C 9.289062 225.753906 10.554688 223.273438 10.816406 220.402344 C 10.855469 219.988281 10.875 219.597656 10.875 219.195312 C 10.875 218.367188 11.546875 217.695312 12.375 217.695312 C 13.207031 217.695312 13.875 218.367188 13.875 219.195312 C 13.875 219.691406 13.851562 220.179688 13.800781 220.683594 C 13.457031 224.480469 11.753906 227.699219 9.125 229.503906 C 8.503906 229.925781 7.871094 230.253906 7.261719 230.566406 C 6.648438 230.882812 6.066406 231.183594 5.574219 231.542969 C 2.683594 233.6875 2.726562 238.355469 4.425781 241.449219 C 5.09375 242.648438 6.019531 243.824219 7.171875 244.933594 C 7.769531 245.507812 7.789062 246.457031 7.214844 247.054688 C 6.917969 247.363281 6.527344 247.515625 6.132812 247.515625" style="fill: rgb(173, 160, 132);"/></g><g clip-path="url(#__id1_sb1y59vl4g)" id="__id32_sb1y59vl4g"><path d="M 157.398438 137.011719 C 157.296875 137.011719 157.199219 137.011719 157.101562 137.007812 C 156.269531 137.003906 155.601562 136.328125 155.609375 135.5 C 155.609375 134.671875 156.25 133.976562 157.113281 134.007812 C 165.476562 134.042969 173.433594 132.070312 180.050781 128.269531 C 191.433594 121.738281 198.996094 110.214844 206.308594 99.074219 C 210.246094 93.078125 214.257812 86.96875 218.914062 81.507812 L 192.128906 98.253906 C 186.722656 101.625 180.597656 105.445312 173.753906 106.703125 C 170.78125 107.25 167.785156 107.289062 165.234375 107.257812 C 164.648438 107.246094 164.085938 107.246094 163.503906 107.238281 L 162.65625 107.226562 C 159.113281 107.148438 155.46875 107.070312 151.980469 107.789062 C 148.519531 108.488281 145.144531 110.136719 142.21875 112.558594 C 137.511719 116.449219 134.28125 122.039062 133.359375 127.898438 C 133.230469 128.71875 132.457031 129.273438 131.644531 129.148438 C 130.824219 129.019531 130.265625 128.25 130.394531 127.433594 C 131.429688 120.859375 135.042969 114.597656 140.308594 110.246094 C 143.613281 107.511719 147.441406 105.644531 151.378906 104.851562 C 155.191406 104.066406 159.007812 104.144531 162.707031 104.226562 L 163.554688 104.238281 C 164.121094 104.25 164.691406 104.257812 165.253906 104.257812 C 167.671875 104.289062 170.496094 104.253906 173.210938 103.753906 C 179.492188 102.597656 185.109375 99.09375 190.539062 95.707031 L 231.886719 69.867188 C 232.585938 69.429688 233.507812 69.640625 233.945312 70.339844 C 234.390625 71.035156 234.183594 71.957031 233.488281 72.402344 C 222.984375 79.140625 215.78125 90.109375 208.816406 100.71875 C 201.3125 112.15625 193.546875 123.980469 181.542969 130.871094 C 174.550781 134.890625 166.203125 137.011719 157.398438 137.011719" style="fill: rgb(173, 160, 132);"/></g><g id="__id33_sb1y59vl4g"><path d="M 165.257812 107.257812 C 164.800781 107.257812 164.347656 107.050781 164.054688 106.65625 C 163.558594 105.992188 163.691406 105.050781 164.359375 104.558594 C 164.636719 104.347656 164.914062 104.121094 165.183594 103.902344 C 168.226562 101.410156 171.125 98.722656 173.929688 96.121094 C 178.726562 91.671875 183.6875 87.066406 189.339844 83.445312 C 193.941406 80.5 198.921875 78.453125 203.75 77.523438 C 209.300781 76.421875 214.441406 76.789062 219.035156 78.613281 C 219.804688 78.921875 220.179688 79.792969 219.875 80.5625 C 219.566406 81.332031 218.691406 81.707031 217.925781 81.402344 C 213.878906 79.792969 209.300781 79.476562 204.324219 80.464844 C 199.859375 81.328125 195.238281 83.230469 190.957031 85.972656 C 185.53125 89.449219 180.671875 93.960938 175.96875 98.320312 C 173.132812 100.953125 170.195312 103.675781 167.140625 106.175781 C 166.777344 106.472656 166.464844 106.726562 166.152344 106.960938 C 165.882812 107.160156 165.566406 107.257812 165.257812 107.257812" style="fill: rgb(173, 160, 132);"/></g><g id="__id34_sb1y59vl4g"><path d="M 162.671875 107.226562 C 161.90625 107.226562 161.253906 106.640625 161.183594 105.863281 C 160.457031 98.132812 162.324219 90.425781 166.449219 84.175781 C 168.554688 80.984375 171.199219 78.171875 173.761719 75.453125 C 177.378906 71.609375 180.796875 67.980469 182.753906 63.414062 C 183.726562 61.152344 184.234375 57.941406 182.46875 56.339844 C 180.976562 54.972656 178.386719 55.105469 174.550781 56.722656 C 173.398438 57.207031 172.238281 57.710938 171.074219 58.21875 C 165.621094 60.589844 159.984375 63.042969 154.167969 63.933594 C 153.511719 64.035156 152.820312 64.121094 152.121094 64.183594 C 149.898438 64.371094 147.832031 64.308594 145.796875 63.988281 C 142.910156 63.535156 140.164062 62.550781 137.507812 61.601562 C 134.386719 60.480469 131.4375 59.425781 128.335938 59.191406 C 121.234375 58.664062 113.839844 62.910156 109.941406 69.761719 C 106.527344 75.777344 105.714844 83.707031 107.714844 91.515625 C 107.753906 91.695312 107.78125 91.792969 107.808594 91.894531 C 107.808594 91.894531 107.835938 91.996094 107.835938 91.996094 C 108.214844 93.414062 108.699219 94.882812 109.164062 96.308594 C 109.621094 97.703125 110.097656 99.144531 110.492188 100.585938 C 110.710938 101.382812 110.238281 102.207031 109.441406 102.425781 C 108.644531 102.648438 107.816406 102.175781 107.597656 101.378906 C 107.222656 100.011719 106.761719 98.605469 106.316406 97.242188 C 105.835938 95.78125 105.339844 94.269531 104.9375 92.769531 C 104.867188 92.511719 104.824219 92.347656 104.789062 92.179688 C 102.617188 83.703125 103.539062 74.964844 107.335938 68.28125 C 111.792969 60.4375 120.335938 55.582031 128.5625 56.199219 C 132.066406 56.464844 135.347656 57.640625 138.519531 58.777344 C 141.160156 59.722656 143.65625 60.613281 146.265625 61.023438 C 148.054688 61.308594 149.886719 61.363281 151.863281 61.191406 C 152.492188 61.140625 153.113281 61.0625 153.707031 60.96875 C 159.144531 60.136719 164.601562 57.761719 169.878906 55.46875 C 171.050781 54.957031 172.222656 54.445312 173.386719 53.957031 C 175.234375 53.179688 180.859375 50.808594 184.488281 54.121094 C 187.417969 56.777344 186.9375 61.277344 185.507812 64.597656 C 183.34375 69.648438 179.582031 73.644531 175.945312 77.507812 C 173.472656 80.136719 170.914062 82.851562 168.953125 85.824219 C 165.203125 91.511719 163.507812 98.527344 164.167969 105.585938 C 164.246094 106.410156 163.640625 107.140625 162.816406 107.21875 C 162.769531 107.222656 162.71875 107.226562 162.671875 107.226562" style="fill: rgb(173, 160, 132);"/></g><g id="__id35_sb1y59vl4g"><path d="M 88.234375 118.488281 C 84.261719 118.488281 80.1875 117.738281 76.261719 116.257812 C 68.585938 113.335938 61.425781 107.855469 54.367188 99.503906 C 47.472656 91.324219 44.863281 83.84375 46.605469 77.269531 C 46.847656 76.359375 47.257812 75.222656 48.308594 74.515625 C 50.667969 72.945312 53.316406 75.046875 54.316406 75.835938 C 59.1875 79.691406 65.886719 81.496094 72.234375 80.660156 C 73.878906 80.445312 75.476562 80.058594 76.988281 79.511719 C 77.597656 79.289062 78.203125 79.046875 78.804688 78.800781 C 80.46875 78.125 82.1875 77.425781 84.089844 77.191406 C 85.167969 77.066406 86.253906 77.082031 87.332031 77.238281 C 92.324219 78.011719 96.628906 81.777344 100.273438 85.242188 C 102.214844 87.09375 104.53125 89.171875 107.003906 90.585938 C 107.722656 90.992188 107.972656 91.910156 107.5625 92.628906 C 107.152344 93.347656 106.234375 93.597656 105.515625 93.1875 C 102.765625 91.617188 100.277344 89.390625 98.207031 87.414062 C 94.738281 84.117188 91.011719 80.84375 86.886719 80.207031 C 86.078125 80.089844 85.253906 80.074219 84.449219 80.167969 C 82.949219 80.355469 81.484375 80.949219 79.933594 81.578125 C 79.292969 81.839844 78.65625 82.097656 78.011719 82.332031 C 76.296875 82.953125 74.484375 83.394531 72.625 83.636719 C 65.386719 84.589844 58.03125 82.601562 52.453125 78.1875 C 50.765625 76.851562 50.179688 76.875 49.980469 77.007812 C 49.820312 77.117188 49.65625 77.464844 49.503906 78.039062 C 48.027344 83.609375 50.433594 90.179688 56.660156 97.566406 C 63.378906 105.519531 70.140625 110.71875 77.324219 113.449219 C 83.390625 115.742188 90.101562 116.101562 95.738281 114.429688 C 96.53125 114.191406 97.367188 114.648438 97.601562 115.441406 C 97.835938 116.234375 97.382812 117.070312 96.589844 117.304688 C 93.925781 118.09375 91.105469 118.488281 88.234375 118.488281" style="fill: rgb(173, 160, 132);"/></g><g id="__id36_sb1y59vl4g"><path d="M 87.113281 80.222656 C 86.289062 80.222656 85.617188 79.558594 85.613281 78.730469 C 85.601562 76.328125 85.601562 73.925781 85.601562 71.523438 C 85.601562 67.0625 85.601562 61.511719 88.105469 56.882812 C 91.347656 50.863281 98.109375 47.09375 108.769531 45.363281 C 109.953125 45.167969 111.152344 44.992188 112.355469 44.8125 C 117.546875 44.046875 122.917969 43.253906 127.398438 40.976562 C 128.414062 40.460938 129.34375 39.894531 130.160156 39.292969 C 131.085938 38.617188 131.972656 37.855469 132.914062 37.046875 C 135.863281 34.523438 138.941406 31.921875 142.996094 32.058594 C 149.773438 32.296875 153.132812 39.714844 153.953125 45.996094 C 154.683594 51.621094 154.519531 57.328125 153.464844 62.964844 C 153.3125 63.777344 152.523438 64.308594 151.714844 64.160156 C 150.902344 64.011719 150.363281 63.226562 150.515625 62.410156 C 151.511719 57.089844 151.664062 51.695312 150.976562 46.382812 C 150.441406 42.261719 148.132812 35.242188 142.890625 35.054688 C 139.988281 34.957031 137.492188 37.074219 134.867188 39.324219 C 133.925781 40.136719 132.945312 40.972656 131.9375 41.710938 C 130.992188 42.40625 129.917969 43.0625 128.753906 43.652344 C 123.839844 46.148438 118.222656 46.976562 112.792969 47.78125 C 111.605469 47.957031 110.421875 48.132812 109.253906 48.324219 C 99.570312 49.898438 93.515625 53.160156 90.746094 58.304688 C 88.601562 62.269531 88.601562 67.183594 88.601562 71.523438 C 88.601562 73.921875 88.601562 76.316406 88.613281 78.71875 C 88.617188 79.546875 87.949219 80.21875 87.121094 80.222656 C 87.117188 80.222656 87.117188 80.222656 87.113281 80.222656" style="fill: rgb(173, 160, 132);"/></g><g id="__id37_sb1y59vl4g"><path d="M 204.03125 80.492188 C 203.726562 80.492188 203.414062 80.402344 203.148438 80.207031 C 202.480469 79.71875 202.332031 78.78125 202.820312 78.109375 C 204.054688 76.417969 205.085938 74.820312 205.96875 73.230469 C 208.347656 68.9375 210.90625 62.359375 209.601562 55.402344 C 208.425781 49.195312 203.84375 43.972656 198.460938 42.703125 C 197.746094 42.535156 197.003906 42.425781 196.214844 42.304688 C 194.1875 42 192.09375 41.683594 190.273438 40.390625 C 187.6875 38.566406 186.8125 35.667969 185.972656 32.863281 C 185.398438 30.957031 184.855469 29.15625 183.816406 27.777344 C 181.160156 24.28125 175.550781 24.203125 171.386719 25.9375 C 169.296875 26.808594 167.339844 28.050781 165.566406 29.628906 C 161.613281 33.125 158.558594 38.234375 156.964844 44.019531 C 155.554688 49.136719 155.070312 54.96875 155.441406 62.375 C 155.480469 63.203125 154.84375 63.90625 154.015625 63.949219 C 153.167969 64.003906 152.484375 63.351562 152.441406 62.523438 C 152.058594 54.789062 152.574219 48.65625 154.070312 43.222656 C 155.820312 36.882812 159.195312 31.257812 163.574219 27.382812 C 165.59375 25.589844 167.835938 24.167969 170.234375 23.167969 C 175.300781 21.058594 182.464844 21.035156 186.203125 25.96875 C 187.574219 27.773438 188.21875 29.925781 188.84375 32 C 189.570312 34.421875 190.261719 36.710938 192.007812 37.941406 C 193.246094 38.824219 194.902344 39.074219 196.660156 39.339844 C 197.472656 39.460938 198.316406 39.585938 199.144531 39.78125 C 205.753906 41.339844 211.136719 47.394531 212.550781 54.847656 C 214.023438 62.683594 211.210938 69.960938 208.589844 74.683594 C 207.648438 76.382812 206.554688 78.082031 205.246094 79.878906 C 204.953125 80.28125 204.496094 80.492188 204.03125 80.492188" style="fill: rgb(173, 160, 132);"/></g><g id="__id38_sb1y59vl4g"><path d="M 72.429688 83.648438 C 71.976562 83.648438 71.523438 83.441406 71.230469 83.050781 L 68.816406 79.828125 C 66.058594 76.148438 63.304688 72.46875 60.554688 68.777344 C 56.285156 63.089844 51.441406 56.632812 50.058594 48.863281 C 48.707031 41.246094 51.953125 31.691406 59.726562 28.886719 C 64.121094 27.296875 68.660156 28.175781 73.046875 29.019531 C 74.910156 29.378906 76.835938 29.75 78.679688 29.910156 C 82.902344 30.28125 87.207031 29.535156 91.125 27.75 C 92.414062 27.175781 93.667969 26.472656 94.855469 25.65625 C 96.335938 24.644531 97.785156 23.414062 99.183594 22.226562 C 102.351562 19.539062 105.621094 16.761719 109.863281 15.808594 C 118.578125 13.851562 126.921875 21.027344 129.246094 28.964844 C 130.445312 33.042969 130.546875 37.636719 129.550781 42.609375 C 129.386719 43.421875 128.597656 43.945312 127.78125 43.78125 C 126.972656 43.621094 126.445312 42.828125 126.609375 42.015625 C 127.511719 37.523438 127.429688 33.417969 126.367188 29.808594 C 123.960938 21.59375 116.234375 17.449219 110.523438 18.734375 C 107 19.527344 104.148438 21.949219 101.128906 24.511719 C 99.667969 25.753906 98.15625 27.03125 96.546875 28.132812 C 95.214844 29.050781 93.804688 29.839844 92.359375 30.484375 C 87.976562 32.476562 83.160156 33.316406 78.417969 32.898438 C 76.421875 32.726562 74.417969 32.339844 72.480469 31.964844 C 68.304688 31.160156 64.363281 30.398438 60.75 31.710938 C 54.460938 33.976562 51.878906 41.945312 53.015625 48.339844 C 54.269531 55.402344 58.886719 61.554688 62.957031 66.980469 C 65.707031 70.675781 68.460938 74.351562 71.21875 78.027344 L 73.632812 81.25 C 74.128906 81.914062 73.992188 82.855469 73.328125 83.351562 C 73.058594 83.550781 72.746094 83.648438 72.429688 83.648438" style="fill: rgb(173, 160, 132);"/></g><g id="__id39_sb1y59vl4g"><path d="M 91.746094 30.617188 C 91.617188 30.617188 91.488281 30.601562 91.359375 30.566406 C 90.558594 30.351562 90.082031 29.53125 90.296875 28.730469 C 90.546875 27.792969 90.765625 26.84375 90.988281 25.894531 C 91.640625 23.089844 92.316406 20.1875 93.734375 17.523438 C 95.585938 14.023438 98.414062 11.425781 101.652344 8.632812 C 107.496094 3.605469 114.511719 -1.308594 122.15625 0.308594 C 127.648438 1.464844 131.410156 5.585938 135.046875 9.570312 C 137.769531 12.550781 140.582031 15.632812 144.027344 17.28125 C 145.730469 18.101562 147.578125 18.578125 149.53125 19.085938 C 150.457031 19.324219 151.382812 19.5625 152.289062 19.839844 C 157.183594 21.324219 161.773438 23.9375 165.578125 27.398438 C 166.191406 27.957031 166.234375 28.90625 165.679688 29.519531 C 165.121094 30.132812 164.171875 30.175781 163.558594 29.617188 C 160.082031 26.453125 155.886719 24.066406 151.421875 22.707031 C 150.550781 22.445312 149.667969 22.21875 148.78125 21.988281 C 146.773438 21.46875 144.695312 20.933594 142.730469 19.988281 C 138.761719 18.089844 135.746094 14.785156 132.828125 11.589844 C 129.363281 7.792969 126.085938 4.203125 121.535156 3.246094 C 115.15625 1.898438 108.894531 6.363281 103.609375 10.90625 C 100.609375 13.492188 97.992188 15.886719 96.386719 18.929688 C 95.148438 21.25 94.546875 23.835938 93.910156 26.574219 C 93.679688 27.550781 93.453125 28.53125 93.195312 29.503906 C 93.015625 30.175781 92.410156 30.617188 91.746094 30.617188" style="fill: rgb(173, 160, 132);"/></g><g id="__id40_sb1y59vl4g"><path d="M 129.171875 129.386719 L 129.171875 129.390625 Z M 129.175781 129.390625 C 129.175781 129.390625 129.175781 129.390625 129.175781 129.394531 C 129.175781 129.390625 129.175781 129.390625 129.175781 129.390625 Z M 129.175781 129.394531 C 129.1875 129.414062 129.199219 129.4375 129.214844 129.460938 C 129.199219 129.4375 129.1875 129.414062 129.175781 129.394531 Z M 129.773438 129.976562 L 129.78125 129.976562 Z M 130.953125 131.171875 C 130.953125 131.171875 130.957031 131.171875 130.957031 131.171875 C 130.957031 131.171875 130.953125 131.171875 130.953125 131.171875 Z M 133.53125 133.515625 C 133.105469 133.515625 132.683594 133.335938 132.386719 132.984375 C 132.09375 132.636719 131.800781 132.285156 131.496094 131.949219 L 131.273438 131.691406 C 131.054688 131.425781 130.84375 131.183594 130.621094 130.941406 C 130.621094 130.941406 130.621094 130.941406 130.617188 130.941406 C 130.554688 130.878906 130.492188 130.8125 130.4375 130.742188 C 130.183594 130.46875 129.9375 130.207031 129.6875 129.964844 L 129.648438 129.933594 C 129.566406 129.875 129.488281 129.804688 129.414062 129.726562 C 129.316406 129.636719 129.21875 129.546875 129.113281 129.464844 C 128.457031 128.957031 128.332031 128.015625 128.839844 127.359375 C 129.347656 126.703125 130.285156 126.582031 130.941406 127.085938 C 131.125 127.226562 131.292969 127.378906 131.460938 127.53125 C 131.46875 127.539062 131.476562 127.546875 131.484375 127.554688 C 131.539062 127.601562 131.597656 127.648438 131.652344 127.699219 C 131.675781 127.71875 131.746094 127.78125 131.769531 127.804688 C 132.066406 128.089844 132.351562 128.394531 132.636719 128.703125 C 132.6875 128.746094 132.734375 128.796875 132.78125 128.851562 C 132.8125 128.882812 132.84375 128.921875 132.871094 128.957031 C 133.109375 129.222656 133.339844 129.484375 133.570312 129.757812 L 133.75 129.972656 C 134.050781 130.300781 134.363281 130.675781 134.679688 131.050781 C 135.214844 131.683594 135.132812 132.628906 134.5 133.164062 C 134.21875 133.398438 133.875 133.515625 133.53125 133.515625" style="fill: rgb(173, 160, 132);"/></g><g id="__id41_sb1y59vl4g"><path d="M 130.328125 131.75 L 130.324219 131.753906 Z M 130.222656 131.933594 Z M 129.949219 136.0625 C 129.519531 136.0625 129.09375 135.878906 128.796875 135.523438 C 128.265625 134.890625 128.351562 133.941406 128.988281 133.410156 C 129.128906 133.292969 129.269531 133.175781 129.386719 133.039062 C 129.730469 132.6875 129.996094 132.324219 130.226562 131.90625 C 130.234375 131.890625 130.246094 131.875 130.257812 131.859375 C 130.273438 131.816406 130.296875 131.777344 130.316406 131.738281 C 130.539062 131.355469 130.742188 130.910156 130.941406 130.375 C 130.945312 130.367188 131.019531 130.175781 131.023438 130.167969 C 131.328125 129.394531 132.199219 129.023438 132.96875 129.324219 C 133.738281 129.632812 134.117188 130.503906 133.8125 131.273438 L 133.734375 131.472656 C 133.507812 132.085938 133.246094 132.652344 132.960938 133.164062 C 132.914062 133.257812 132.867188 133.34375 132.816406 133.425781 C 132.460938 134.050781 132.046875 134.605469 131.585938 135.078125 C 131.394531 135.300781 131.132812 135.527344 130.910156 135.714844 C 130.632812 135.949219 130.289062 136.0625 129.949219 136.0625" style="fill: rgb(173, 160, 132);"/></g></g></svg>