<svg xmlns="http://www.w3.org/2000/svg" xmlns:xlink="http://www.w3.org/1999/xlink" preserveAspectRatio="xMidYMid meet" version="1.0" viewBox="-0.2 -0.3 233.3 500.1" zoomAndPan="magnify" style="fill: rgb(0, 0, 0);" original_string_length="38531"><defs><clipPath id="__id42_sb1y59vl4g"><path d="M 91 429 L 120 429 L 120 499.859375 L 91 499.859375 Z M 91 429"/></clipPath><clipPath id="__id43_sb1y59vl4g"><path d="M 117 322 L 233.089844 322 L 233.089844 425 L 117 425 Z M 117 322"/></clipPath></defs><g><g id="__id44_sb1y59vl4g"><path d="M 78.820312 113.777344 L 77.351562 113.464844 L 75.894531 113.101562 L 76.007812 112.660156 C 76.226562 111.863281 77.050781 111.390625 77.851562 111.609375 C 78.648438 111.828125 79.121094 112.652344 78.902344 113.449219 L 78.820312 113.777344" style="fill: rgb(173, 160, 132);"/></g><g id="__id45_sb1y59vl4g"><path d="M 78.277344 110.410156 C 78.1875 110.410156 78.097656 110.402344 78.011719 110.386719 C 77.195312 110.238281 76.652344 109.460938 76.796875 108.644531 C 77.203125 106.378906 77.511719 104.277344 77.742188 102.222656 C 79.585938 86.902344 78.164062 71.65625 73.625 58.117188 C 71.292969 51.148438 68.074219 44.492188 64.058594 38.34375 C 63.605469 37.648438 63.804688 36.71875 64.496094 36.265625 C 65.191406 35.8125 66.121094 36.011719 66.574219 36.703125 C 70.726562 43.066406 74.054688 49.953125 76.472656 57.164062 C 81.148438 71.121094 82.617188 86.820312 80.71875 102.570312 C 80.484375 104.675781 80.167969 106.839844 79.75 109.171875 C 79.621094 109.898438 78.988281 110.410156 78.277344 110.410156" style="fill: rgb(173, 160, 132);"/></g><g id="__id46_sb1y59vl4g"><path d="M 69.542969 110.269531 C 69.28125 110.269531 69.015625 110.199219 68.773438 110.054688 C 68.414062 109.839844 68.039062 109.609375 67.679688 109.382812 C 64.308594 107.273438 61.414062 105.066406 58.84375 102.640625 C 52.308594 96.488281 47.070312 88.101562 42.828125 77 C 37.753906 63.734375 35.113281 49.746094 34.980469 35.421875 C 34.921875 28.894531 35.394531 22.375 36.390625 16.046875 C 36.527344 15.164062 36.816406 13.316406 38.375 12.421875 C 39.722656 11.644531 41.386719 11.894531 43.316406 13.175781 C 49.226562 17.042969 54.667969 21.820312 59.484375 27.367188 C 61.1875 29.304688 62.839844 31.382812 64.386719 33.539062 C 65.070312 34.484375 65.78125 35.515625 66.554688 36.683594 C 67.011719 37.371094 66.824219 38.304688 66.132812 38.761719 C 65.441406 39.21875 64.511719 39.03125 64.054688 38.339844 C 63.304688 37.207031 62.617188 36.210938 61.953125 35.296875 C 60.457031 33.210938 58.871094 31.210938 57.226562 29.34375 C 52.585938 23.996094 47.351562 19.402344 41.664062 15.679688 C 40.363281 14.816406 39.945312 14.980469 39.871094 15.023438 C 39.664062 15.140625 39.488281 15.644531 39.351562 16.515625 C 38.386719 22.679688 37.921875 29.03125 37.980469 35.394531 C 38.109375 49.359375 40.683594 62.996094 45.628906 75.929688 C 49.707031 86.597656 54.703125 94.621094 60.898438 100.457031 C 63.328125 102.746094 66.070312 104.835938 69.277344 106.84375 C 69.625 107.0625 69.976562 107.277344 70.316406 107.484375 C 71.027344 107.910156 71.257812 108.832031 70.832031 109.539062 C 70.550781 110.011719 70.054688 110.269531 69.542969 110.269531" style="fill: rgb(173, 160, 132);"/></g><g id="__id47_sb1y59vl4g"><path d="M 77.453125 114.558594 C 77.230469 114.558594 77.003906 114.507812 76.789062 114.402344 L 76.574219 114.292969 C 75.832031 113.921875 75.53125 113.023438 75.902344 112.28125 C 76.273438 111.539062 77.175781 111.242188 77.914062 111.609375 L 78.121094 111.714844 C 78.863281 112.082031 79.167969 112.980469 78.800781 113.722656 C 78.535156 114.253906 78.007812 114.558594 77.453125 114.558594" style="fill: rgb(173, 160, 132);"/></g><g id="__id48_sb1y59vl4g"><path d="M 68.730469 110.285156 C 68.050781 110.285156 67.359375 110.253906 66.675781 110.191406 C 62.207031 109.804688 57.636719 108.179688 53.464844 105.496094 C 48.613281 102.386719 44.226562 97.964844 39.664062 91.578125 C 30.433594 78.621094 24.441406 63.363281 22.339844 47.449219 C 21.789062 43.253906 21.511719 39.035156 21.511719 34.917969 C 21.496094 33.132812 21.652344 31.277344 22.878906 29.851562 C 25.199219 27.144531 29.371094 28.066406 32.476562 30.183594 C 34.28125 31.402344 35.988281 32.804688 37.539062 34.34375 C 38.125 34.925781 38.128906 35.875 37.546875 36.464844 C 36.960938 37.050781 36.011719 37.054688 35.425781 36.472656 C 34.007812 35.066406 32.449219 33.785156 30.792969 32.667969 C 29.171875 31.5625 26.339844 30.421875 25.152344 31.804688 C 24.542969 32.515625 24.5 33.777344 24.511719 34.90625 C 24.511719 38.90625 24.78125 42.992188 25.316406 47.058594 C 27.351562 62.484375 33.160156 77.277344 42.105469 89.835938 C 46.441406 95.898438 50.5625 100.074219 55.085938 102.972656 C 58.851562 105.394531 62.953125 106.855469 66.941406 107.203125 C 67.789062 107.28125 68.644531 107.300781 69.488281 107.269531 C 70.40625 107.25 71.296875 107.15625 72.238281 106.988281 C 73.046875 106.84375 73.832031 107.386719 73.976562 108.203125 C 74.125 109.015625 73.582031 109.796875 72.765625 109.941406 C 71.671875 110.136719 70.632812 110.242188 69.582031 110.269531 C 69.300781 110.277344 69.015625 110.285156 68.730469 110.285156" style="fill: rgb(173, 160, 132);"/></g><g id="__id49_sb1y59vl4g"><path d="M 1.5 51.535156 C 1.148438 51.535156 0.792969 51.410156 0.507812 51.160156 C -0.113281 50.613281 -0.171875 49.664062 0.375 49.042969 C 1.257812 48.039062 2.144531 47.28125 3.089844 46.714844 C 5.921875 45.003906 9.308594 45.035156 12.027344 45.054688 C 15.765625 45.074219 20.003906 45.101562 24.074219 45.773438 C 24.890625 45.910156 25.441406 46.683594 25.308594 47.5 C 25.171875 48.316406 24.402344 48.867188 23.582031 48.734375 C 19.75 48.101562 15.636719 48.074219 12.007812 48.054688 C 9.019531 48.03125 6.589844 48.105469 4.636719 49.285156 C 3.957031 49.691406 3.300781 50.261719 2.625 51.027344 C 2.328125 51.363281 1.914062 51.535156 1.5 51.535156" style="fill: rgb(173, 160, 132);"/></g><g id="__id50_sb1y59vl4g"><path d="M 58.066406 111.511719 C 51.507812 111.511719 44.949219 109.5 39.667969 105.683594 C 31.34375 99.648438 26.828125 90.222656 22.460938 81.105469 C 21.050781 78.167969 19.597656 75.132812 18.046875 72.285156 C 14.949219 66.609375 11.1875 61.246094 6.863281 56.355469 C 4.71875 53.929688 2.753906 52.304688 0.851562 51.386719 C 0.105469 51.027344 -0.210938 50.132812 0.148438 49.386719 C 0.507812 48.640625 1.40625 48.324219 2.152344 48.683594 C 4.425781 49.777344 6.699219 51.636719 9.109375 54.371094 C 13.582031 59.429688 17.476562 64.972656 20.679688 70.851562 C 22.269531 73.765625 23.742188 76.835938 25.164062 79.808594 C 29.371094 88.589844 33.71875 97.667969 41.425781 103.253906 C 48.457031 108.335938 58.011719 109.871094 66.363281 107.265625 C 67.160156 107.019531 67.996094 107.460938 68.242188 108.253906 C 68.492188 109.042969 68.050781 109.882812 67.257812 110.132812 C 64.289062 111.058594 61.175781 111.511719 58.066406 111.511719" style="fill: rgb(173, 160, 132);"/></g><g id="__id51_sb1y59vl4g"><path d="M 79.230469 103.890625 C 78.808594 103.890625 78.386719 103.710938 78.089844 103.363281 C 77.550781 102.730469 77.628906 101.785156 78.257812 101.246094 C 79.894531 99.855469 81.226562 97.964844 82.117188 95.773438 C 83.601562 92.113281 83.820312 87.980469 83.84375 84.421875 C 83.90625 73.632812 82.03125 64.042969 78.269531 55.921875 C 74.996094 48.886719 70.214844 42.941406 64.433594 38.734375 C 64.375 38.691406 64.324219 38.648438 64.273438 38.597656 C 63.984375 38.324219 63.804688 37.9375 63.804688 37.511719 C 63.804688 36.683594 64.476562 36.011719 65.304688 36.011719 C 65.65625 36.011719 65.984375 36.136719 66.242188 36.34375 C 72.414062 40.847656 77.511719 47.179688 80.988281 54.660156 C 84.9375 63.1875 86.90625 73.207031 86.84375 84.441406 C 86.820312 88.28125 86.570312 92.769531 84.898438 96.902344 C 83.828125 99.535156 82.203125 101.828125 80.203125 103.53125 C 79.921875 103.773438 79.574219 103.890625 79.230469 103.890625" style="fill: rgb(173, 160, 132);"/></g><g id="__id52_sb1y59vl4g"><path d="M 63.167969 35.914062 C 63.027344 35.914062 62.886719 35.894531 62.742188 35.855469 C 61.949219 35.621094 61.492188 34.785156 61.726562 33.992188 C 62.679688 30.746094 63.878906 28.066406 65.390625 25.800781 C 67.214844 23.046875 69.597656 20.875 72.28125 19.523438 C 73.925781 18.679688 75.640625 18.175781 77.371094 18.023438 C 78.046875 17.964844 78.714844 17.957031 79.359375 17.949219 C 80.644531 17.9375 81.859375 17.925781 82.855469 17.496094 C 83.796875 17.09375 84.601562 16.296875 85.410156 15.445312 L 85.789062 15.046875 C 87.796875 12.929688 89.992188 10.773438 92.546875 9.199219 C 93.089844 8.851562 93.671875 8.527344 94.265625 8.246094 C 97.453125 6.699219 100.988281 6.332031 103.949219 7.242188 C 104.742188 7.484375 105.1875 8.324219 104.945312 9.113281 C 104.699219 9.90625 103.859375 10.351562 103.070312 10.109375 C 100.820312 9.421875 98.085938 9.726562 95.566406 10.949219 C 95.078125 11.183594 94.597656 11.445312 94.140625 11.738281 C 91.984375 13.070312 90.121094 14.839844 87.984375 17.09375 L 87.601562 17.496094 C 86.59375 18.558594 85.503906 19.628906 84.039062 20.253906 C 82.492188 20.921875 80.914062 20.9375 79.390625 20.949219 C 78.773438 20.957031 78.195312 20.964844 77.632812 21.011719 C 76.289062 21.128906 74.945312 21.527344 73.640625 22.195312 C 71.445312 23.304688 69.40625 25.171875 67.886719 27.464844 C 66.542969 29.476562 65.472656 31.886719 64.605469 34.835938 C 64.414062 35.492188 63.816406 35.914062 63.167969 35.914062" style="fill: rgb(173, 160, 132);"/></g><g id="__id53_sb1y59vl4g"><path d="M 75.3125 110.703125 C 74.335938 110.703125 73.332031 110.609375 72.335938 110.417969 C 71.523438 110.261719 70.988281 109.476562 71.144531 108.664062 C 71.300781 107.851562 72.085938 107.316406 72.898438 107.472656 C 74.050781 107.691406 75.203125 107.753906 76.324219 107.660156 C 76.902344 107.628906 77.4375 107.554688 77.957031 107.441406 C 81.464844 106.765625 84.941406 104.707031 87.78125 101.640625 C 90.011719 99.242188 91.722656 96.390625 92.742188 93.382812 C 95.679688 84.753906 94.40625 75.195312 93.171875 65.945312 L 93.132812 65.632812 C 90.90625 48.933594 89.304688 29.875 98.546875 15.066406 C 98.808594 14.640625 99.085938 14.21875 99.359375 13.796875 C 100.539062 11.976562 101.65625 10.261719 102.039062 8.375 C 102.203125 7.566406 103 7.039062 103.808594 7.207031 C 104.621094 7.371094 105.144531 8.164062 104.980469 8.976562 C 104.484375 11.414062 103.15625 13.457031 101.875 15.429688 C 101.609375 15.839844 101.347656 16.246094 101.089844 16.65625 C 92.375 30.617188 93.847656 48.3125 96.105469 65.238281 L 96.148438 65.550781 C 97.425781 75.140625 98.746094 85.054688 95.582031 94.34375 C 94.429688 97.75 92.492188 100.980469 89.980469 103.679688 C 86.710938 107.210938 82.65625 109.589844 78.558594 110.382812 C 77.917969 110.519531 77.226562 110.613281 76.535156 110.652344 C 76.132812 110.6875 75.722656 110.703125 75.3125 110.703125" style="fill: rgb(173, 160, 132);"/></g><g id="__id54_sb1y59vl4g"><path d="M 88.882812 104.160156 C 88.753906 104.160156 88.621094 104.140625 88.492188 104.105469 C 87.691406 103.890625 87.21875 103.066406 87.433594 102.269531 C 90.652344 90.339844 89.234375 77.167969 87.425781 65.859375 C 87.085938 63.746094 86.726562 61.632812 86.367188 59.515625 C 84.308594 47.410156 82.179688 34.890625 83.820312 22.5 C 84.121094 20.246094 84.535156 18.097656 85.046875 16.105469 C 85.253906 15.304688 86.070312 14.820312 86.871094 15.027344 C 87.675781 15.234375 88.15625 16.050781 87.953125 16.855469 C 87.46875 18.730469 87.078125 20.761719 86.792969 22.894531 C 85.210938 34.835938 87.300781 47.125 89.324219 59.015625 C 89.683594 61.140625 90.046875 63.261719 90.386719 65.382812 C 92.246094 77.007812 93.695312 90.574219 90.332031 103.050781 C 90.152344 103.71875 89.542969 104.160156 88.882812 104.160156" style="fill: rgb(173, 160, 132);"/></g><g clip-path="url(#__id42_sb1y59vl4g)" id="__id55_sb1y59vl4g"><path d="M 92.945312 499.859375 C 92.664062 499.859375 92.382812 499.78125 92.128906 499.617188 C 91.433594 499.164062 91.238281 498.234375 91.691406 497.542969 C 104.144531 478.417969 112.605469 456.089844 116.835938 431.175781 C 116.972656 430.355469 117.753906 429.808594 118.5625 429.945312 C 119.378906 430.085938 119.929688 430.859375 119.789062 431.675781 C 115.492188 457 106.882812 479.710938 94.207031 499.179688 C 93.917969 499.621094 93.4375 499.859375 92.945312 499.859375" style="fill: rgb(173, 160, 132);"/></g><g id="__id56_sb1y59vl4g"><path d="M 118.316406 432.914062 C 118.234375 432.914062 118.148438 432.90625 118.066406 432.890625 C 117.246094 432.757812 116.695312 431.980469 116.832031 431.164062 C 117.296875 428.398438 117.679688 425.808594 118.003906 423.253906 C 119.964844 408.289062 120.382812 392.625 119.246094 376.6875 L 119.085938 374.589844 C 118.96875 373.0625 118.828125 371.554688 118.679688 370.046875 C 118.597656 369.222656 119.199219 368.488281 120.023438 368.40625 C 120.839844 368.308594 121.582031 368.925781 121.664062 369.75 C 121.816406 371.28125 121.957031 372.8125 122.074219 374.351562 L 122.238281 376.457031 C 123.390625 392.609375 122.964844 408.480469 120.980469 423.636719 C 120.652344 426.226562 120.261719 428.851562 119.792969 431.660156 C 119.667969 432.394531 119.035156 432.914062 118.316406 432.914062" style="fill: rgb(173, 160, 132);"/></g><g id="__id57_sb1y59vl4g"><path d="M 120.167969 371.386719 C 119.40625 371.386719 118.753906 370.808594 118.679688 370.03125 C 116.492188 347.609375 111.4375 324.175781 103.214844 298.394531 C 98.875 284.773438 93.609375 270.359375 87.117188 254.328125 C 86.808594 253.558594 87.175781 252.683594 87.945312 252.371094 C 88.714844 252.0625 89.585938 252.433594 89.898438 253.199219 C 96.421875 269.304688 101.710938 283.789062 106.074219 297.484375 C 114.359375 323.46875 119.460938 347.105469 121.664062 369.742188 C 121.742188 370.566406 121.140625 371.300781 120.316406 371.378906 C 120.265625 371.382812 120.21875 371.386719 120.167969 371.386719" style="fill: rgb(173, 160, 132);"/></g><g id="__id58_sb1y59vl4g"><path d="M 88.507812 255.253906 C 87.917969 255.253906 87.355469 254.898438 87.121094 254.316406 L 85.71875 250.894531 C 85.40625 250.128906 85.773438 249.253906 86.539062 248.9375 C 87.304688 248.625 88.183594 248.992188 88.496094 249.761719 L 89.898438 253.183594 C 90.210938 253.953125 89.84375 254.828125 89.074219 255.140625 C 88.890625 255.214844 88.699219 255.253906 88.507812 255.253906" style="fill: rgb(173, 160, 132);"/></g><g id="__id59_sb1y59vl4g"><path d="M 87.0625 251.785156 C 86.53125 251.785156 86.027344 251.503906 85.769531 250.992188 C 85.757812 250.96875 85.710938 250.871094 85.699219 250.847656 C 85.695312 250.835938 85.652344 250.746094 85.648438 250.734375 L 84.582031 248.132812 C 79.121094 234.851562 73.476562 221.121094 72.347656 206.570312 C 71.480469 195.234375 73.402344 183.886719 75.265625 172.914062 C 76.136719 167.765625 77.039062 162.445312 77.636719 157.214844 C 79.28125 142.722656 78.691406 128.101562 75.878906 113.753906 C 75.847656 113.554688 75.824219 113.449219 75.796875 113.339844 C 75.785156 113.304688 75.777344 113.269531 75.773438 113.234375 C 75.53125 111.976562 75.265625 110.726562 74.984375 109.480469 C 74.804688 108.671875 75.316406 107.871094 76.125 107.691406 C 76.933594 107.511719 77.734375 108.019531 77.914062 108.828125 C 78.195312 110.089844 78.464844 111.347656 78.707031 112.617188 C 78.765625 112.839844 78.808594 113.046875 78.835938 113.265625 C 81.691406 127.828125 82.296875 142.757812 80.617188 157.554688 C 80.011719 162.867188 79.101562 168.230469 78.222656 173.414062 C 76.390625 184.210938 74.5 195.371094 75.339844 206.339844 C 76.429688 220.417969 81.984375 233.925781 87.355469 246.988281 L 88.410156 249.566406 C 88.425781 249.59375 88.4375 249.617188 88.441406 249.628906 C 88.773438 250.371094 88.46875 251.28125 87.730469 251.632812 C 87.515625 251.734375 87.285156 251.785156 87.0625 251.785156" style="fill: rgb(173, 160, 132);"/></g><g id="__id60_sb1y59vl4g"><path d="M 88.507812 255.261719 C 87.902344 255.261719 87.347656 254.894531 87.117188 254.335938 C 87.039062 254.148438 87.003906 253.949219 87.003906 253.753906 C 86.820312 251.175781 86.714844 248.5625 86.691406 245.984375 C 86.683594 245.15625 87.351562 244.476562 88.179688 244.46875 C 88.183594 244.46875 88.1875 244.46875 88.195312 244.46875 C 89.015625 244.46875 89.683594 245.132812 89.691406 245.957031 C 89.714844 248.507812 89.820312 251.097656 90.003906 253.644531 C 90.007812 253.683594 90.007812 253.71875 90.007812 253.757812 C 90.007812 253.761719 90.007812 253.761719 90.007812 253.761719 C 90.007812 254.589844 89.335938 255.261719 88.507812 255.261719" style="fill: rgb(173, 160, 132);"/></g><g id="__id61_sb1y59vl4g"><path d="M 88.191406 247.457031 C 87.371094 247.457031 86.703125 246.800781 86.691406 245.976562 C 86.570312 236.664062 87.425781 227.605469 89.238281 219.054688 C 94.972656 191.964844 110.5 168.117188 125.519531 145.054688 C 141.109375 121.121094 157.226562 96.371094 162.003906 68.289062 C 163.40625 60.089844 163.921875 50.988281 163.582031 40.46875 C 163.554688 39.640625 164.207031 38.945312 165.035156 38.921875 C 165.855469 38.898438 166.554688 39.542969 166.582031 40.371094 C 166.925781 51.097656 166.398438 60.394531 164.960938 68.796875 C 160.078125 97.488281 143.789062 122.5 128.035156 146.691406 C 113.164062 169.523438 97.789062 193.132812 92.171875 219.675781 C 90.40625 228.011719 89.574219 236.847656 89.691406 245.9375 C 89.703125 246.765625 89.039062 247.445312 88.210938 247.457031 C 88.207031 247.457031 88.199219 247.457031 88.191406 247.457031" style="fill: rgb(173, 160, 132);"/></g><g id="__id62_sb1y59vl4g"><path d="M 88.191406 247.46875 C 87.808594 247.46875 87.425781 247.324219 87.132812 247.03125 C 86.722656 246.621094 86.582031 246.003906 86.773438 245.460938 C 89.5 235.402344 93.65625 225.882812 99.132812 217.15625 C 106.558594 205.339844 116.316406 195.082031 125.753906 185.160156 C 134.410156 176.0625 143.359375 166.652344 150.398438 156.128906 C 164.101562 135.660156 171.269531 109.570312 170.582031 82.660156 C 170.222656 68.9375 167.890625 54.871094 163.648438 40.855469 C 163.605469 40.714844 163.582031 40.566406 163.582031 40.421875 C 163.582031 39.59375 164.253906 38.914062 165.082031 38.914062 C 165.796875 38.914062 166.394531 39.410156 166.546875 40.074219 C 170.847656 54.320312 173.214844 68.621094 173.578125 82.582031 C 174.285156 110.105469 166.9375 136.820312 152.894531 157.800781 C 145.710938 168.535156 136.667969 178.039062 127.925781 187.230469 C 118.589844 197.042969 108.9375 207.191406 101.671875 218.75 C 96.351562 227.230469 92.3125 236.488281 89.664062 246.265625 C 89.605469 246.546875 89.46875 246.8125 89.253906 247.03125 C 88.960938 247.324219 88.578125 247.46875 88.191406 247.46875" style="fill: rgb(173, 160, 132);"/></g><g id="__id63_sb1y59vl4g"><path d="M 87.105469 251.820312 C 86.277344 251.820312 85.605469 251.15625 85.605469 250.328125 L 85.605469 250.316406 C 85.605469 249.488281 86.277344 248.816406 87.105469 248.816406 C 87.933594 248.816406 88.605469 249.488281 88.605469 250.316406 C 88.605469 251.144531 87.933594 251.820312 87.105469 251.820312" style="fill: rgb(173, 160, 132);"/></g><g id="__id64_sb1y59vl4g"><path d="M 230.324219 394.390625 C 229.71875 394.390625 229.148438 394.023438 228.921875 393.421875 C 227.359375 389.304688 224.96875 386.027344 221.8125 383.6875 C 218.652344 381.335938 214.910156 380.050781 210.945312 378.6875 C 207.433594 377.476562 203.796875 376.230469 200.566406 374.164062 C 192.65625 369.132812 188.640625 360.464844 184.753906 352.085938 C 183.792969 350.007812 182.800781 347.867188 181.773438 345.84375 C 178.246094 338.890625 171.699219 330.8125 163.902344 328.992188 C 161.839844 328.503906 159.75 328.480469 157.683594 328.917969 C 152.71875 329.984375 148.644531 333.738281 144.984375 337.636719 C 135.738281 347.46875 127.847656 358.539062 121.523438 370.539062 C 121.277344 371.042969 120.765625 371.390625 120.171875 371.390625 C 119.34375 371.390625 118.671875 370.726562 118.671875 369.898438 L 118.671875 369.886719 C 118.671875 369.644531 118.730469 369.402344 118.84375 369.1875 C 125.296875 356.929688 133.355469 345.625 142.796875 335.585938 C 146.789062 331.332031 151.28125 327.222656 157.058594 325.984375 C 159.566406 325.449219 162.097656 325.480469 164.589844 326.074219 C 172.054688 327.816406 179.484375 334.699219 184.449219 344.484375 C 185.5 346.554688 186.503906 348.722656 187.476562 350.820312 C 191.179688 358.8125 195.011719 367.074219 202.179688 371.636719 C 205.113281 373.507812 208.417969 374.644531 211.921875 375.851562 C 215.925781 377.226562 220.070312 378.652344 223.601562 381.277344 C 227.226562 383.964844 229.957031 387.695312 231.726562 392.359375 C 232.019531 393.132812 231.628906 394 230.855469 394.292969 C 230.679688 394.359375 230.5 394.390625 230.324219 394.390625" style="fill: rgb(173, 160, 132);"/></g><g clip-path="url(#__id43_sb1y59vl4g)" id="__id65_sb1y59vl4g"><path d="M 119.492188 424.945312 C 119.027344 424.945312 118.5625 424.726562 118.269531 424.3125 C 117.789062 423.636719 117.949219 422.703125 118.625 422.222656 C 122.140625 419.722656 125.230469 416.914062 127.816406 413.875 C 138.773438 400.984375 141.683594 383.386719 144.503906 366.371094 C 145.234375 361.964844 145.988281 357.40625 146.867188 353.011719 C 148.519531 344.808594 151.402344 334.652344 159.097656 328.839844 C 160.480469 327.792969 161.960938 326.921875 163.621094 326.167969 C 169.179688 323.597656 175.679688 322.972656 181.339844 322.589844 C 183.632812 322.433594 186.496094 322.234375 189.101562 323.304688 C 193.945312 325.28125 195.6875 330.132812 197.371094 334.828125 C 198.238281 337.238281 199.132812 339.730469 200.429688 341.714844 C 203.023438 345.671875 207.351562 347.882812 211.933594 350.226562 C 214.410156 351.496094 216.972656 352.804688 219.28125 354.429688 C 227.144531 359.96875 232.269531 369.542969 232.988281 380.042969 C 233.292969 384.320312 232.886719 388.765625 231.78125 393.25 C 231.582031 394.054688 230.769531 394.550781 229.964844 394.347656 C 229.160156 394.148438 228.667969 393.335938 228.867188 392.53125 C 229.898438 388.351562 230.277344 384.21875 229.996094 380.253906 C 229.335938 370.640625 224.6875 361.90625 217.554688 356.882812 C 215.417969 355.382812 212.953125 354.117188 210.566406 352.898438 C 205.835938 350.480469 200.949219 347.980469 197.921875 343.355469 C 196.429688 341.078125 195.472656 338.414062 194.550781 335.839844 C 193.019531 331.578125 191.574219 327.554688 187.964844 326.082031 C 186.003906 325.277344 183.632812 325.441406 181.542969 325.582031 C 176.152344 325.949219 169.972656 326.535156 164.871094 328.894531 C 163.402344 329.558594 162.105469 330.324219 160.902344 331.230469 C 154.054688 336.40625 151.453125 345.445312 149.8125 353.601562 C 148.9375 357.945312 148.1875 362.476562 147.464844 366.859375 C 144.578125 384.28125 141.59375 402.296875 130.101562 415.816406 C 127.355469 419.042969 124.078125 422.023438 120.363281 424.667969 C 120.097656 424.855469 119.796875 424.945312 119.492188 424.945312" style="fill: rgb(173, 160, 132);"/></g><g id="__id66_sb1y59vl4g"><path d="M 118.3125 432.917969 C 117.539062 432.917969 116.902344 432.339844 116.820312 431.585938 C 116.496094 429.566406 116.074219 427.515625 115.570312 425.488281 C 114.792969 422.265625 113.796875 419.039062 112.609375 415.886719 C 105.515625 397.066406 92.792969 380.691406 80.488281 364.859375 C 78.65625 362.5 76.824219 360.144531 75.015625 357.785156 C 60.707031 339.140625 46.972656 318.683594 43.398438 295.433594 C 42.441406 289.171875 42.160156 282.367188 42.542969 274.625 C 42.890625 267.25 43.796875 259.792969 44.667969 252.578125 L 44.875 250.871094 C 44.976562 250.050781 45.726562 249.464844 46.546875 249.5625 C 47.367188 249.664062 47.953125 250.410156 47.855469 251.230469 L 47.648438 252.941406 C 46.78125 260.097656 45.882812 267.5 45.539062 274.769531 C 45.167969 282.3125 45.4375 288.921875 46.363281 294.976562 C 49.835938 317.558594 63.328125 337.632812 77.394531 355.957031 C 79.203125 358.3125 81.027344 360.664062 82.855469 363.015625 C 95.296875 379.027344 108.160156 395.585938 115.417969 414.828125 C 116.644531 418.09375 117.679688 421.441406 118.484375 424.773438 C 119.011719 426.894531 119.453125 429.050781 119.792969 431.175781 C 119.808594 431.253906 119.8125 431.332031 119.8125 431.414062 C 119.8125 432.242188 119.140625 432.917969 118.3125 432.917969" style="fill: rgb(173, 160, 132);"/></g><g id="__id67_sb1y59vl4g"><path d="M 46.367188 252.539062 C 46.300781 252.539062 46.230469 252.535156 46.160156 252.527344 C 45.339844 252.414062 44.765625 251.65625 44.878906 250.835938 L 44.902344 250.683594 C 47.667969 227.875 50.117188 203.691406 47.246094 180.09375 C 45.097656 162.367188 39.828125 145.984375 32 132.710938 C 31.578125 131.996094 31.816406 131.078125 32.53125 130.65625 C 33.242188 130.234375 34.164062 130.472656 34.582031 131.1875 C 42.617188 144.8125 48.027344 161.597656 50.226562 179.730469 C 53.136719 203.660156 50.667969 228.054688 47.890625 250.988281 L 47.851562 251.242188 C 47.75 251.996094 47.105469 252.539062 46.367188 252.539062" style="fill: rgb(173, 160, 132);"/></g><g id="__id68_sb1y59vl4g"><path d="M 44.039062 276.199219 C 43.449219 276.199219 42.886719 275.847656 42.652344 275.265625 C 37.261719 262.027344 33.957031 249.347656 32.546875 236.492188 C 30.859375 221.054688 32.050781 205.347656 33.207031 190.15625 C 33.71875 183.429688 34.246094 176.476562 34.515625 169.652344 C 35.082031 155.128906 34.203125 142.902344 31.828125 132.277344 C 31.648438 131.46875 32.15625 130.664062 32.964844 130.484375 C 33.777344 130.308594 34.574219 130.8125 34.753906 131.621094 C 37.1875 142.507812 38.089844 154.984375 37.511719 169.769531 C 37.242188 176.648438 36.710938 183.632812 36.199219 190.382812 C 35.054688 205.4375 33.871094 221.003906 35.53125 236.167969 C 36.90625 248.738281 40.144531 261.15625 45.429688 274.132812 C 45.742188 274.902344 45.375 275.777344 44.605469 276.089844 C 44.421875 276.164062 44.230469 276.199219 44.039062 276.199219" style="fill: rgb(173, 160, 132);"/></g><g id="__id69_sb1y59vl4g"><path d="M 120.742188 378.082031 C 120.074219 378.082031 119.464844 377.632812 119.289062 376.953125 C 118.855469 375.257812 118.378906 373.589844 117.875 372.011719 C 110.328125 347.929688 93.800781 326.117188 79.214844 306.871094 C 66.214844 289.710938 52.863281 271.308594 44.972656 251.609375 C 44.902344 251.433594 44.867188 251.242188 44.867188 251.050781 C 44.867188 250.222656 45.535156 249.546875 46.367188 249.546875 C 47.039062 249.546875 47.605469 249.984375 47.796875 250.59375 C 55.558594 269.921875 68.21875 287.386719 81.605469 305.058594 C 96.339844 324.5 113.035156 346.53125 120.738281 371.109375 C 121.253906 372.738281 121.746094 374.453125 122.195312 376.210938 C 122.402344 377.011719 121.917969 377.828125 121.117188 378.035156 C 120.992188 378.066406 120.867188 378.082031 120.742188 378.082031" style="fill: rgb(173, 160, 132);"/></g><g id="__id70_sb1y59vl4g"><path d="M 156.515625 211.914062 Z M 104.640625 299.4375 C 103.832031 299.4375 103.164062 298.796875 103.144531 297.980469 C 102.347656 268.917969 108.074219 244.570312 120.167969 225.605469 C 126.835938 215.171875 134.417969 209.128906 142.710938 207.644531 C 147.03125 206.867188 151.738281 207.304688 157.09375 208.96875 C 157.292969 209.011719 157.449219 209.074219 157.558594 209.121094 C 158.320312 209.453125 158.667969 210.335938 158.339844 211.09375 C 158.015625 211.839844 157.160156 212.1875 156.414062 211.894531 C 156.367188 211.886719 156.324219 211.875 156.28125 211.859375 C 151.363281 210.320312 147.101562 209.902344 143.242188 210.597656 C 135.804688 211.925781 128.894531 217.519531 122.695312 227.21875 C 110.933594 245.667969 105.363281 269.445312 106.144531 297.898438 C 106.164062 298.726562 105.511719 299.414062 104.683594 299.4375 C 104.671875 299.4375 104.65625 299.4375 104.640625 299.4375" style="fill: rgb(173, 160, 132);"/></g><g id="__id71_sb1y59vl4g"><path d="M 72.957031 22.363281 C 72.722656 22.363281 72.488281 22.308594 72.265625 22.191406 C 71.53125 21.808594 71.246094 20.90625 71.628906 20.167969 C 71.789062 19.855469 71.976562 19.539062 72.167969 19.226562 C 76.847656 11.328125 83.851562 4.730469 91.894531 0.644531 C 92.730469 0.203125 93.867188 -0.261719 95.078125 0.171875 C 95.808594 0.429688 96.378906 0.945312 96.714844 1.65625 C 97.421875 3.144531 96.882812 5.035156 96.617188 5.78125 L 94.746094 10.980469 C 94.464844 11.761719 93.605469 12.164062 92.828125 11.886719 C 92.046875 11.609375 91.640625 10.75 91.921875 9.96875 L 93.789062 4.769531 C 94.097656 3.914062 94.097656 3.246094 94.03125 3.003906 C 93.933594 3.015625 93.71875 3.074219 93.273438 3.308594 C 85.710938 7.148438 79.140625 13.339844 74.75 20.75 C 74.582031 21.03125 74.425781 21.289062 74.289062 21.554688 C 74.019531 22.066406 73.496094 22.363281 72.957031 22.363281" style="fill: rgb(173, 160, 132);"/></g><g id="__id72_sb1y59vl4g"><path d="M 58.351562 29.851562 C 57.617188 29.851562 56.976562 29.3125 56.867188 28.566406 C 56.296875 24.628906 56.171875 20.65625 56.496094 16.765625 C 56.582031 15.738281 56.839844 12.621094 59.363281 11.566406 C 61.539062 10.675781 63.664062 12.027344 64.683594 12.679688 C 67.878906 14.683594 71.070312 16.695312 74.261719 18.71875 L 74.816406 19.0625 C 75.519531 19.5 75.730469 20.425781 75.292969 21.128906 C 74.855469 21.832031 73.929688 22.046875 73.226562 21.609375 L 72.664062 21.257812 C 69.46875 19.230469 66.28125 17.222656 63.082031 15.214844 C 62.21875 14.664062 61.15625 14.070312 60.511719 14.339844 C 59.96875 14.566406 59.613281 15.492188 59.484375 17.015625 C 59.183594 20.679688 59.300781 24.421875 59.835938 28.136719 C 59.957031 28.957031 59.386719 29.71875 58.566406 29.835938 C 58.496094 29.847656 58.421875 29.851562 58.351562 29.851562" style="fill: rgb(173, 160, 132);"/></g><g id="__id73_sb1y59vl4g"><path d="M 157.054688 210.324219 L 157.066406 210.324219 Z M 166.414062 284.789062 C 166.472656 284.789062 166.53125 284.792969 166.589844 284.800781 C 167.160156 284.867188 167.644531 285.253906 167.832031 285.796875 L 170.632812 293.882812 C 171.644531 291.832031 172.269531 289.609375 172.925781 287.257812 C 173.230469 286.183594 173.519531 285.148438 173.796875 284.105469 C 175.785156 276.855469 177.28125 270.765625 178.132812 264.574219 C 179.191406 256.992188 179.085938 250.375 177.800781 244.34375 C 176.421875 237.863281 173.480469 231.125 168.804688 223.742188 C 165.769531 218.96875 162.539062 215.28125 159.195312 212.785156 C 158.78125 212.472656 158.355469 212.175781 157.921875 211.894531 C 153.066406 221.132812 150.144531 228.554688 148.46875 235.882812 C 145.441406 249.089844 147.15625 261.945312 153.171875 271.15625 C 154.132812 272.632812 155.253906 274.09375 156.335938 275.507812 C 158.902344 278.855469 161.554688 282.320312 162.699219 286.566406 L 162.742188 286.722656 C 162.796875 286.933594 162.867188 287.195312 162.925781 287.273438 C 163.269531 287.355469 164.414062 286.636719 165.148438 285.480469 C 165.429688 285.046875 165.90625 284.789062 166.414062 284.789062 Z M 170.496094 297.441406 C 170.28125 297.441406 170.0625 297.410156 169.84375 297.351562 C 168.535156 296.964844 168.09375 295.710938 167.90625 295.175781 L 165.816406 289.148438 C 164.984375 289.800781 164.03125 290.257812 163.070312 290.300781 C 162.078125 290.34375 161.167969 289.917969 160.550781 289.105469 C 160.121094 288.550781 159.957031 287.9375 159.839844 287.488281 L 159.800781 287.347656 C 158.8125 283.675781 156.453125 280.59375 153.953125 277.332031 C 152.839844 275.875 151.683594 274.367188 150.660156 272.800781 C 144.203125 262.90625 142.335938 249.207031 145.546875 235.214844 C 147.320312 227.449219 150.425781 219.621094 155.613281 209.839844 C 155.648438 209.765625 155.6875 209.691406 155.730469 209.617188 C 155.816406 209.441406 155.90625 209.265625 156.003906 209.089844 C 156.375 208.386719 157.238281 208.101562 157.953125 208.4375 C 158.191406 208.546875 158.425781 208.683594 158.648438 208.824219 C 159.421875 209.269531 160.234375 209.808594 161 210.390625 C 164.625 213.097656 168.109375 217.050781 171.339844 222.136719 C 176.210938 229.824219 179.28125 236.882812 180.734375 243.71875 C 182.09375 250.097656 182.214844 257.058594 181.101562 264.988281 C 180.230469 271.335938 178.707031 277.535156 176.695312 284.886719 C 176.414062 285.933594 176.121094 286.980469 175.828125 288.027344 C 175.132812 290.507812 174.425781 293.027344 173.234375 295.390625 C 172.546875 296.714844 171.558594 297.441406 170.496094 297.441406" style="fill: rgb(173, 160, 132);"/></g><g id="__id74_sb1y59vl4g"><path d="M 222.460938 274.285156 C 222.300781 274.285156 222.136719 274.257812 221.976562 274.203125 C 218.21875 272.917969 214.609375 270.082031 212.070312 266.417969 C 208.769531 261.644531 207.167969 256.035156 205.621094 250.613281 L 205.304688 249.503906 C 202.519531 239.8125 199.089844 229.699219 192.890625 221.382812 C 189.570312 216.945312 184.0625 211.335938 176.664062 209.828125 C 175.355469 209.570312 173.980469 209.441406 172.480469 209.429688 C 169.253906 209.375 165.851562 209.929688 162.929688 210.457031 C 161.242188 210.757812 159.675781 211.117188 158.257812 211.527344 C 158.226562 211.539062 158.191406 211.546875 158.15625 211.554688 C 157.953125 211.597656 157.761719 211.660156 157.570312 211.734375 C 157.496094 211.757812 157.421875 211.78125 157.34375 211.796875 C 156.585938 212.132812 155.699219 211.792969 155.363281 211.035156 C 155.023438 210.277344 155.363281 209.394531 156.117188 209.058594 C 156.292969 208.980469 156.460938 208.921875 156.636719 208.878906 C 156.9375 208.773438 157.203125 208.695312 157.464844 208.636719 C 158.972656 208.199219 160.632812 207.816406 162.402344 207.503906 C 165.460938 206.949219 169.035156 206.371094 172.515625 206.429688 C 174.195312 206.441406 175.746094 206.59375 177.253906 206.890625 C 185.585938 208.582031 191.660156 214.730469 195.292969 219.589844 C 201.78125 228.289062 205.324219 238.710938 208.1875 248.675781 L 208.507812 249.789062 C 209.988281 254.980469 211.519531 260.347656 214.535156 264.710938 C 216.714844 267.855469 219.78125 270.28125 222.945312 271.363281 C 223.730469 271.632812 224.148438 272.484375 223.878906 273.269531 C 223.667969 273.890625 223.085938 274.285156 222.460938 274.285156" style="fill: rgb(173, 160, 132);"/></g><g id="__id75_sb1y59vl4g"><path d="M 221.0625 274.375 C 216.832031 274.375 212.515625 272.933594 208.757812 270.242188 C 207.871094 269.609375 207.035156 268.917969 206.273438 268.195312 C 205.238281 267.203125 204.28125 266.121094 203.425781 264.972656 C 200.925781 261.636719 199.066406 257.484375 198.050781 252.96875 L 197.992188 252.710938 C 197.546875 250.691406 197.085938 248.605469 195.6875 247.890625 C 195.257812 247.671875 194.6875 247.570312 194.078125 247.460938 C 193.660156 247.382812 193.242188 247.304688 192.839844 247.195312 C 189.234375 246.242188 186.414062 242.988281 184.46875 237.535156 C 183.496094 234.824219 182.738281 232.023438 182.003906 229.3125 C 180.882812 225.175781 179.824219 221.265625 178.074219 217.566406 C 176.46875 214.171875 174.15625 211.164062 171.558594 209.101562 C 170.910156 208.589844 170.800781 207.644531 171.316406 206.996094 C 171.832031 206.347656 172.777344 206.238281 173.421875 206.753906 C 176.375 209.097656 178.988281 212.480469 180.785156 216.28125 C 182.652344 220.222656 183.792969 224.445312 184.902344 228.527344 C 185.617188 231.183594 186.363281 233.929688 187.289062 236.527344 C 188.886719 240.996094 191.015625 243.609375 193.613281 244.300781 C 193.945312 244.386719 194.277344 244.445312 194.613281 244.507812 C 195.367188 244.644531 196.222656 244.800781 197.050781 245.214844 C 199.710938 246.574219 200.382812 249.617188 200.921875 252.0625 L 200.976562 252.316406 C 201.902344 256.414062 203.578125 260.175781 205.832031 263.179688 C 206.585938 264.199219 207.429688 265.152344 208.34375 266.019531 C 209.003906 266.648438 209.730469 267.25 210.503906 267.800781 C 214.132812 270.402344 218.335938 271.65625 222.328125 271.324219 C 223.136719 271.261719 223.875 271.867188 223.945312 272.695312 C 224.011719 273.519531 223.398438 274.246094 222.574219 274.3125 C 222.070312 274.355469 221.566406 274.375 221.0625 274.375" style="fill: rgb(173, 160, 132);"/></g><g id="__id76_sb1y59vl4g"><path d="M 195.425781 290.402344 C 194.984375 290.402344 194.546875 290.335938 194.113281 290.195312 C 192.484375 289.675781 191.484375 288.3125 190.648438 286.925781 C 189.109375 284.347656 187.777344 281.597656 186.488281 278.941406 C 185.402344 276.699219 184.277344 274.382812 183.054688 272.226562 C 181.585938 269.613281 180.101562 267.511719 178.515625 265.800781 C 177.953125 265.191406 177.992188 264.242188 178.597656 263.679688 C 179.207031 263.117188 180.15625 263.15625 180.71875 263.761719 C 182.464844 265.648438 184.082031 267.933594 185.667969 270.75 C 186.933594 272.984375 188.078125 275.347656 189.1875 277.632812 C 190.449219 280.234375 191.753906 282.921875 193.21875 285.382812 C 193.714844 286.203125 194.308594 287.105469 195.03125 287.339844 C 196.449219 287.800781 198.023438 285.6875 198.730469 284.367188 C 199.769531 282.417969 200.640625 280.367188 201.308594 278.273438 C 202.773438 273.773438 203.402344 268.898438 203.132812 264.164062 C 203.085938 263.339844 203.71875 262.628906 204.546875 262.582031 C 205.394531 262.558594 206.082031 263.167969 206.128906 263.996094 C 206.417969 269.097656 205.738281 274.351562 204.164062 279.195312 C 203.441406 281.453125 202.5 283.671875 201.375 285.78125 C 199.789062 288.738281 197.601562 290.402344 195.425781 290.402344" style="fill: rgb(173, 160, 132);"/></g><g id="__id77_sb1y59vl4g"><path d="M 203.550781 280.3125 C 203.511719 280.3125 203.453125 280.300781 203.433594 280.3125 C 203.066406 280.3125 202.710938 280.269531 202.375 280.1875 C 201.570312 279.984375 201.082031 279.171875 201.285156 278.367188 C 201.484375 277.5625 202.292969 277.074219 203.101562 277.277344 C 203.210938 277.304688 203.359375 277.3125 203.519531 277.3125 C 205.417969 277.3125 207.003906 275.582031 207.609375 273.851562 C 208.175781 272.242188 208.1875 270.457031 208.132812 269.078125 C 208.101562 268.253906 208.746094 267.554688 209.574219 267.523438 C 210.398438 267.488281 211.097656 268.136719 211.132812 268.964844 C 211.195312 270.605469 211.171875 272.761719 210.441406 274.847656 C 209.511719 277.492188 206.964844 280.3125 203.550781 280.3125" style="fill: rgb(173, 160, 132);"/></g><g id="__id78_sb1y59vl4g"><path d="M 178.03125 286.921875 C 176.78125 286.921875 175.511719 286.503906 174.386719 285.71875 C 173.710938 285.246094 173.542969 284.308594 174.019531 283.632812 C 174.492188 282.953125 175.425781 282.785156 176.105469 283.261719 C 176.613281 283.613281 177.410156 284.015625 178.339844 283.902344 C 179.484375 283.761719 180.648438 282.769531 181.308594 281.375 C 181.980469 279.9375 182.160156 278.25 182.351562 276.464844 C 182.515625 274.738281 182.695312 273.03125 182.867188 271.332031 C 182.953125 270.507812 183.6875 269.914062 184.515625 269.996094 C 185.339844 270.078125 185.9375 270.816406 185.851562 271.640625 C 185.679688 273.332031 185.503906 275.035156 185.339844 276.722656 C 185.125 278.734375 184.910156 280.753906 184.027344 282.648438 C 182.914062 285 180.875 286.617188 178.699219 286.878906 C 178.476562 286.90625 178.253906 286.921875 178.03125 286.921875" style="fill: rgb(173, 160, 132);"/></g></g></svg>